<svg width="102" height="355" viewBox="0 0 102 355" fill="none" xmlns="http://www.w3.org/2000/svg">
<path d="M61.9625 3.27197L71.0953 3.2719L77.5953 3.2719L81.0953 3.2719L75.5686 35.5243L56.8573 32.225L61.9625 3.27197Z" fill="white"/>
<path d="M75.5686 35.5244L94.28 38.8237L88.0286 74.2768L69.3173 70.9775L75.5686 35.5244Z" fill="white"/>
<path d="M63.066 106.431L81.7773 109.73L75.526 145.183L56.8146 141.884L63.066 106.431Z" fill="white"/>
<path d="M38.1033 138.584L56.8146 141.884L50.5633 177.337L31.8519 174.037L38.1033 138.584Z" fill="white"/>
<path d="M50.5633 177.337L69.2746 180.636L63.0233 216.089L44.312 212.79L50.5633 177.337Z" fill="white"/>
<path d="M25.6006 209.49L44.312 212.79L38.0606 248.243L19.3493 244.944L25.6006 209.49Z" fill="white"/>
<path d="M38.0606 248.243L56.772 251.542L50.5206 286.995L31.8093 283.696L38.0606 248.243Z" fill="white"/>
<path d="M13.098 280.397L31.8093 283.696L25.558 319.149L6.84663 315.85L13.098 280.397Z" fill="white"/>
<path d="M25.558 319.149L44.2693 322.448L38.5953 351.272L29.5953 351.272L20.0953 351.272L25.558 319.149Z" fill="white"/>
<path d="M50.606 67.6781L69.3173 70.9774L63.066 106.43L44.3546 103.131L50.606 67.6781Z" fill="white"/>
<path d="M81.0953 3.3706L85.0953 3.37063L90.5953 3.37064L100.531 3.37064L94.28 38.8237L75.5686 35.5244L81.0953 3.3706Z" fill="black"/>
<path d="M69.3173 70.9774L88.0286 74.2767L81.7773 109.73L63.066 106.43L69.3173 70.9774Z" fill="black"/>
<path d="M44.3546 103.131L63.066 106.431L56.8146 141.884L38.1033 138.584L44.3546 103.131Z" fill="black"/>
<path d="M56.8146 141.884L75.526 145.183L69.2746 180.636L50.5633 177.337L56.8146 141.884Z" fill="black"/>
<path d="M31.8519 174.037L50.5633 177.337L44.3119 212.79L25.6006 209.49L31.8519 174.037Z" fill="black"/>
<path d="M44.312 212.79L63.0233 216.089L56.772 251.542L38.0606 248.243L44.312 212.79Z" fill="black"/>
<path d="M19.3493 244.943L38.0606 248.243L31.8093 283.696L13.0979 280.397L19.3493 244.943Z" fill="black"/>
<path d="M31.8093 283.696L50.5206 286.995L44.2693 322.448L25.558 319.149L31.8093 283.696Z" fill="black"/>
<path d="M6.84662 315.85L25.558 319.149L20.0953 351.303L17.5953 351.303L10.0953 351.303L0.595284 351.303L6.84662 315.85Z" fill="black"/>
<path d="M56.8573 32.2251L75.5686 35.5244L69.3173 70.9775L50.606 67.6782L56.8573 32.2251Z" fill="black"/>
<path d="M61.5953 3.77197H100.595L39.0953 351.772H0.595276L61.5953 3.77197Z" stroke="black"/>
<path d="M61.5953 3.77197H100.595L39.0953 351.772H0.595276L61.5953 3.77197Z" stroke="black" stroke-opacity="0.2"/>
<path d="M61.5953 3.77197H100.595L39.0953 351.772H0.595276L61.5953 3.77197Z" stroke="black" stroke-opacity="0.04"/>
</svg>
