<svg width="1600" height="364" viewBox="0 0 1600 364" fill="none" xmlns="http://www.w3.org/2000/svg">
<path d="M0.00012207 15V364H1600V15H0.00012207Z" fill="#4DA4C0"/>
<path d="M884.173 185.046C883.353 185.046 882.247 185.1 881.031 185.161C875.124 185.651 876.414 187.546 874.673 187.546H866.173C863.173 187.546 863.173 186.046 860.173 187.546C857.173 189.046 854.673 186.046 852.173 183.546C849.673 181.046 850.173 185.046 847.173 185.046C844.173 185.046 842.173 181.546 839.173 181.546C836.173 181.546 832.673 184.046 828.173 182.546C823.673 181.046 823.173 183.546 821.673 183.546H816.173C812.208 181.649 806.665 182.578 806.173 185.046C805.783 187.008 802.007 184.046 801.173 184.046C799.826 181.037 794.404 180.896 790.673 182.546C787.887 183.779 785.84 181.713 785.173 181.546C782.693 183.916 774.318 185.976 771.673 185.046C769.786 184.383 767.673 185.046 762.173 187.546C756.673 190.046 754.173 187.546 749.673 187.546C746.073 187.546 745.84 188.546 746.173 189.046C745.673 189.546 744.273 190.546 742.673 190.546H730.673C724.173 190.546 727.673 189.046 724.173 189.046H719.673L715.173 190.546C713.873 189.162 712.653 188.014 711.351 187.049C704.209 185.11 698.532 183.691 694.15 182.842C690.87 183.325 687.5 184.293 682.173 186C681.157 181.858 684.546 180.981 694.15 182.842C695.308 182.671 696.455 182.561 697.673 182.5C704.395 183.402 708.126 184.66 711.351 187.049C711.948 187.211 712.556 187.377 713.173 187.546L717.173 185.046H724.173L732.173 187.546L739.173 185.046L742.673 181.546H749.673H756.173C758.673 181.546 762.173 180.046 763.673 180.046H771.673C773.173 180.046 774.248 177.653 776.673 177.046C778.673 176.546 780.89 180.33 782.673 177.046C782.673 177.046 787.34 179.213 788.173 178.546C789.957 181.502 791.265 180.307 796.173 180.046H802.673L806.173 178.546C809.32 178.773 810.63 179.168 812.673 180.046C817.001 182.124 818.032 181.471 819.673 180.046C822.952 181.477 824.214 181.04 825.673 178.546C826.766 178.342 830.33 179.379 831.673 180.046C832.569 180.491 833.673 178.546 836.173 178.546C838.173 178.546 840.506 181.546 842.673 181.546H853.673L860.173 185.046C850.352 179.013 858.015 181.15 872.673 185.046C874.39 185.503 878.043 185.31 881.031 185.161C881.908 185.088 882.944 185.046 884.173 185.046Z" fill="#FFFDFD"/>
<path d="M700.673 186C696.343 182.52 691.33 183.676 682.173 186M682.173 186C680.655 179.809 688.974 180.912 713.173 187.546L717.173 185.046H724.173L732.173 187.546L739.173 185.046L742.673 181.546H749.673C751.007 181.546 754.173 181.546 756.173 181.546C758.673 181.546 762.173 180.046 763.673 180.046C765.173 180.046 770.173 180.046 771.673 180.046C773.173 180.046 774.248 177.653 776.673 177.046C778.673 176.546 780.89 180.33 782.673 177.046C782.673 177.046 787.34 179.213 788.173 178.546C789.957 181.502 791.265 180.307 796.173 180.046H802.673L806.173 178.546C809.32 178.773 810.63 179.168 812.673 180.046C817.001 182.124 818.032 181.471 819.673 180.046C822.952 181.477 824.214 181.04 825.673 178.546C826.766 178.342 830.33 179.379 831.673 180.046C832.569 180.491 833.673 178.546 836.173 178.546C838.173 178.546 840.506 181.546 842.673 181.546H853.673L860.173 185.046C850.352 179.013 858.015 181.15 872.673 185.046C875.089 185.689 881.34 185.046 884.173 185.046C874.673 185.046 876.673 187.546 874.673 187.546C872.173 187.546 869.173 187.546 866.173 187.546C863.173 187.546 863.173 186.046 860.173 187.546C857.173 189.046 854.673 186.046 852.173 183.546C849.673 181.046 850.173 185.046 847.173 185.046C844.173 185.046 842.173 181.546 839.173 181.546C836.173 181.546 832.673 184.046 828.173 182.546C823.673 181.046 823.173 183.546 821.673 183.546C820.473 183.546 817.506 183.546 816.173 183.546C812.208 181.649 806.665 182.578 806.173 185.046C805.783 187.008 802.007 184.046 801.173 184.046C799.826 181.037 794.404 180.896 790.673 182.546C787.887 183.779 785.84 181.713 785.173 181.546C782.693 183.916 774.318 185.976 771.673 185.046C769.786 184.383 767.673 185.046 762.173 187.546C756.673 190.046 754.173 187.546 749.673 187.546C746.073 187.546 745.84 188.546 746.173 189.046C745.673 189.546 744.273 190.546 742.673 190.546C740.673 190.546 737.173 190.546 730.673 190.546C724.173 190.546 727.673 189.046 724.173 189.046C721.373 189.046 720.006 189.046 719.673 189.046L715.173 190.546C710.651 185.734 707.109 183.766 697.673 182.5C693.006 182.734 689.381 183.69 682.173 186Z" stroke="white"/>
<path d="M1031 36.3158C1029.35 36.3158 1027.12 36.3714 1024.67 36.4343C1012.78 36.9409 1015.38 38.8995 1011.88 38.8995H994.764C988.724 38.8995 988.724 37.3493 982.685 38.8995C976.646 40.4498 971.613 37.3493 966.58 34.7656C961.547 32.1818 962.554 36.3158 956.514 36.3158C950.475 36.3158 946.449 32.6986 940.409 32.6986C934.37 32.6986 927.324 35.2823 918.265 33.7321C909.206 32.1818 908.199 34.7656 905.18 34.7656H894.107C886.125 32.8046 874.965 33.765 873.976 36.3158C873.19 38.343 865.588 35.2823 863.911 35.2823C861.199 32.1723 850.284 32.0266 842.773 33.7321C837.164 35.0056 833.043 32.8708 831.701 32.6986C826.707 35.1475 809.848 37.2762 804.523 36.3158C800.725 35.6307 796.471 36.3158 785.399 38.8995C774.327 41.4833 769.294 38.8995 760.235 38.8995C752.987 38.8995 752.518 39.933 753.189 40.4498C752.182 40.9665 749.364 42 746.143 42H721.985C708.9 42 715.946 40.4498 708.9 40.4498H699.841L690.782 42C688.164 40.5698 685.709 39.3826 683.088 38.3858C668.709 36.3818 657.281 34.9151 648.459 34.0375C641.856 34.5369 635.071 35.5374 624.348 37.3014C622.303 33.0204 629.126 32.1143 648.459 34.0375C650.791 33.8611 653.1 33.7472 655.552 33.6842C669.084 34.616 676.596 35.9166 683.088 38.3858C684.29 38.5533 685.512 38.7246 686.755 38.8995L694.808 36.3158H708.9L725.005 38.8995L739.097 36.3158L746.143 32.6986H760.235H773.32C778.353 32.6986 785.399 31.1484 788.418 31.1484H804.523C807.543 31.1484 809.707 28.6745 814.589 28.0479C818.615 27.5311 823.078 31.4419 826.668 28.0479C826.668 28.0479 836.062 30.2871 837.74 29.5981C841.332 32.6526 843.964 31.418 853.845 31.1484H866.93L873.976 29.5981C880.311 29.8324 882.949 30.2406 887.062 31.1484C895.774 33.2958 897.851 32.6209 901.153 31.1484C907.754 32.6266 910.295 32.1757 913.232 29.5981C915.432 29.3866 922.607 30.4585 925.311 31.1484C927.114 31.6082 929.337 29.5981 934.37 29.5981C938.396 29.5981 943.094 32.6986 947.455 32.6986H969.6L982.685 36.3158C962.913 30.0799 978.341 32.2894 1007.85 36.3158C1011.31 36.7874 1018.66 36.5888 1024.67 36.4343C1026.44 36.359 1028.53 36.3158 1031 36.3158Z" fill="#FFFDFD"/>
<path d="M661.591 37.3014C652.873 33.705 642.783 34.9001 624.348 37.3014M624.348 37.3014C621.292 30.9036 638.04 32.0434 686.755 38.8995L694.808 36.3158H708.9L725.005 38.8995L739.097 36.3158L746.143 32.6986H760.235C762.919 32.6986 769.294 32.6986 773.32 32.6986C778.353 32.6986 785.399 31.1484 788.418 31.1484C791.438 31.1484 801.504 31.1484 804.523 31.1484C807.543 31.1484 809.707 28.6745 814.589 28.0479C818.615 27.5311 823.078 31.4419 826.668 28.0479C826.668 28.0479 836.062 30.2871 837.74 29.5981C841.332 32.6526 843.964 31.418 853.845 31.1484H866.93L873.976 29.5981C880.311 29.8324 882.949 30.2406 887.062 31.1484C895.774 33.2958 897.851 32.6209 901.153 31.1484C907.754 32.6266 910.295 32.1757 913.232 29.5981C915.432 29.3866 922.606 30.4585 925.311 31.1484C927.114 31.6082 929.337 29.5981 934.37 29.5981C938.396 29.5981 943.094 32.6986 947.455 32.6986H969.6L982.685 36.3158C962.913 30.0799 978.341 32.2894 1007.85 36.3158C1012.71 36.9795 1025.3 36.3158 1031 36.3158C1011.88 36.3158 1015.9 38.8995 1011.88 38.8995C1006.84 38.8995 1000.8 38.8995 994.764 38.8995C988.724 38.8995 988.724 37.3493 982.685 38.8995C976.646 40.4498 971.613 37.3493 966.58 34.7656C961.547 32.1818 962.554 36.3158 956.514 36.3158C950.475 36.3158 946.449 32.6986 940.409 32.6986C934.37 32.6986 927.324 35.2823 918.265 33.7321C909.206 32.1818 908.199 34.7656 905.18 34.7656C902.764 34.7656 896.792 34.7656 894.107 34.7656C886.125 32.8046 874.965 33.765 873.976 36.3158C873.19 38.343 865.588 35.2823 863.911 35.2823C861.199 32.1723 850.284 32.0266 842.773 33.7321C837.164 35.0056 833.043 32.8708 831.701 32.6986C826.707 35.1475 809.848 37.2762 804.523 36.3158C800.725 35.6307 796.471 36.3158 785.399 38.8995C774.327 41.4833 769.294 38.8995 760.235 38.8995C752.987 38.8995 752.518 39.933 753.189 40.4498C752.182 40.9665 749.364 42 746.143 42C742.116 42 735.07 42 721.985 42C708.9 42 715.946 40.4498 708.9 40.4498C703.263 40.4498 700.512 40.4498 699.841 40.4498L690.782 42C681.679 37.0267 674.547 34.9922 655.552 33.6842C646.156 33.9256 638.858 34.9144 624.348 37.3014Z" stroke="white"/>
<path d="M1525 39.3158C1523.6 39.3158 1521.7 39.3714 1519.62 39.4343C1509.51 39.9409 1511.72 41.8995 1508.74 41.8995H1494.19C1489.06 41.8995 1489.06 40.3493 1483.93 41.8995C1478.79 43.4498 1474.51 40.3493 1470.24 37.7656C1465.96 35.1818 1466.81 39.3158 1461.68 39.3158C1456.54 39.3158 1453.12 35.6986 1447.99 35.6986C1442.85 35.6986 1436.86 38.2823 1429.16 36.7321C1421.46 35.1818 1420.6 37.7656 1418.04 37.7656H1408.62C1401.84 35.8046 1392.35 36.765 1391.51 39.3158C1390.84 41.343 1384.38 38.2823 1382.95 38.2823C1380.65 35.1723 1371.37 35.0266 1364.98 36.7321C1360.22 38.0056 1356.71 35.8708 1355.57 35.6986C1351.33 38.1475 1336.99 40.2762 1332.47 39.3158C1329.24 38.6307 1325.62 39.3158 1316.21 41.8995C1306.8 44.4833 1302.52 41.8995 1294.82 41.8995C1288.66 41.8995 1288.26 42.933 1288.83 43.4498C1287.97 43.9665 1285.57 45 1282.84 45H1262.3C1251.18 45 1257.17 43.4498 1251.18 43.4498H1243.47L1235.77 45C1233.55 43.5698 1231.46 42.3826 1229.23 41.3858C1217.01 39.3818 1207.29 37.9151 1199.79 37.0375C1194.18 37.5369 1188.41 38.5374 1179.3 40.3014C1177.56 36.0204 1183.36 35.1143 1199.79 37.0375C1201.78 36.8611 1203.74 36.7472 1205.82 36.6842C1217.33 37.616 1223.71 38.9166 1229.23 41.3858C1230.25 41.5533 1231.29 41.7246 1232.35 41.8995L1239.2 39.3158H1251.18L1264.87 41.8995L1276.85 39.3158L1282.84 35.6986H1294.82H1305.94C1310.22 35.6986 1316.21 34.1484 1318.78 34.1484H1332.47C1335.03 34.1484 1336.87 31.6745 1341.02 31.0479C1344.45 30.5311 1348.24 34.4419 1351.29 31.0479C1351.29 31.0479 1359.28 33.2871 1360.71 32.5981C1363.76 35.6526 1366 34.418 1374.4 34.1484H1385.52L1391.51 32.5981C1396.9 32.8324 1399.14 33.2406 1402.63 34.1484C1410.04 36.2958 1411.81 35.6209 1414.61 34.1484C1420.23 35.6266 1422.39 35.1757 1424.88 32.5981C1426.75 32.3866 1432.85 33.4585 1435.15 34.1484C1436.68 34.6082 1438.57 32.5981 1442.85 32.5981C1446.28 32.5981 1450.27 35.6986 1453.98 35.6986H1472.8L1483.93 39.3158C1467.12 33.0799 1480.23 35.2894 1505.32 39.3158C1508.26 39.7874 1514.51 39.5888 1519.62 39.4343C1521.12 39.359 1522.9 39.3158 1525 39.3158Z" fill="#FFFDFD"/>
<path d="M1210.96 40.3014C1203.55 36.705 1194.97 37.9001 1179.3 40.3014M1179.3 40.3014C1176.7 33.9036 1190.94 35.0434 1232.35 41.8995L1239.2 39.3158H1251.18L1264.87 41.8995L1276.85 39.3158L1282.84 35.6986H1294.82C1297.1 35.6986 1302.52 35.6986 1305.94 35.6986C1310.22 35.6986 1316.21 34.1484 1318.78 34.1484C1321.34 34.1484 1329.9 34.1484 1332.47 34.1484C1335.03 34.1484 1336.87 31.6745 1341.02 31.0479C1344.45 30.5311 1348.24 34.4419 1351.29 31.0479C1351.29 31.0479 1359.28 33.2871 1360.71 32.5981C1363.76 35.6526 1366 34.418 1374.4 34.1484H1385.52L1391.51 32.5981C1396.9 32.8324 1399.14 33.2406 1402.63 34.1484C1410.04 36.2958 1411.81 35.6209 1414.61 34.1484C1420.23 35.6266 1422.39 35.1757 1424.88 32.5981C1426.75 32.3866 1432.85 33.4585 1435.15 34.1484C1436.68 34.6082 1438.57 32.5981 1442.85 32.5981C1446.28 32.5981 1450.27 35.6986 1453.98 35.6986H1472.8L1483.93 39.3158C1467.12 33.0799 1480.23 35.2894 1505.32 39.3158C1509.45 39.9795 1520.15 39.3158 1525 39.3158C1508.74 39.3158 1512.16 41.8995 1508.74 41.8995C1504.46 41.8995 1499.33 41.8995 1494.19 41.8995C1489.06 41.8995 1489.06 40.3493 1483.93 41.8995C1478.79 43.4498 1474.51 40.3493 1470.24 37.7656C1465.96 35.1818 1466.81 39.3158 1461.68 39.3158C1456.54 39.3158 1453.12 35.6986 1447.99 35.6986C1442.85 35.6986 1436.86 38.2823 1429.16 36.7321C1421.46 35.1818 1420.6 37.7656 1418.04 37.7656C1415.98 37.7656 1410.91 37.7656 1408.62 37.7656C1401.84 35.8046 1392.35 36.765 1391.51 39.3158C1390.84 41.343 1384.38 38.2823 1382.95 38.2823C1380.65 35.1723 1371.37 35.0266 1364.98 36.7321C1360.22 38.0056 1356.71 35.8708 1355.57 35.6986C1351.33 38.1475 1336.99 40.2762 1332.47 39.3158C1329.24 38.6307 1325.62 39.3158 1316.21 41.8995C1306.8 44.4833 1302.52 41.8995 1294.82 41.8995C1288.66 41.8995 1288.26 42.933 1288.83 43.4498C1287.97 43.9665 1285.57 45 1282.84 45C1279.41 45 1273.42 45 1262.3 45C1251.18 45 1257.17 43.4498 1251.18 43.4498C1246.38 43.4498 1244.04 43.4498 1243.47 43.4498L1235.77 45C1228.03 40.0267 1221.97 37.9922 1205.82 36.6842C1197.84 36.9256 1191.63 37.9144 1179.3 40.3014Z" stroke="white"/>
<path d="M626.173 82.0463C625.353 82.0463 624.247 82.1001 623.031 82.161C617.124 82.6512 618.414 84.5463 616.673 84.5463H608.173C605.173 84.5463 605.173 83.0463 602.173 84.5463C599.173 86.0463 596.673 83.0463 594.173 80.5463C591.673 78.0463 592.173 82.0463 589.173 82.0463C586.173 82.0463 584.173 78.5463 581.173 78.5463C578.173 78.5463 574.673 81.0463 570.173 79.5463C565.673 78.0463 565.173 80.5463 563.673 80.5463H558.173C554.208 78.6489 548.665 79.5781 548.173 82.0463C547.783 84.0078 544.007 81.0463 543.173 81.0463C541.826 78.0371 536.404 77.8961 532.673 79.5463C529.887 80.7786 527.84 78.713 527.173 78.5463C524.693 80.9159 516.318 82.9756 513.673 82.0463C511.786 81.3834 509.673 82.0463 504.173 84.5463C498.673 87.0463 496.173 84.5463 491.673 84.5463C488.073 84.5463 487.84 85.5463 488.173 86.0463C487.673 86.5463 486.273 87.5463 484.673 87.5463H472.673C466.173 87.5463 469.673 86.0463 466.173 86.0463H461.673L457.173 87.5463C455.873 86.1625 454.653 85.0137 453.351 84.0493C446.209 82.1102 440.532 80.691 436.15 79.8418C432.87 80.3251 429.5 81.2931 424.173 83C423.157 78.8577 426.546 77.981 436.15 79.8418C437.308 79.6712 438.455 79.561 439.673 79.5C446.395 80.4016 450.126 81.6601 453.351 84.0493C453.948 84.2113 454.556 84.377 455.173 84.5463L459.173 82.0463H466.173L474.173 84.5463L481.173 82.0463L484.673 78.5463H491.673H498.173C500.673 78.5463 504.173 77.0463 505.673 77.0463H513.673C515.173 77.0463 516.248 74.6527 518.673 74.0463C520.673 73.5463 522.89 77.3304 524.673 74.0463C524.673 74.0463 529.34 76.213 530.173 75.5463C531.957 78.5018 533.265 77.3072 538.173 77.0463H544.673L548.173 75.5463C551.32 75.773 552.63 76.168 554.673 77.0463C559.001 79.1242 560.032 78.4712 561.673 77.0463C564.952 78.4767 566.214 78.0404 567.673 75.5463C568.766 75.3416 572.33 76.3788 573.673 77.0463C574.569 77.4913 575.673 75.5463 578.173 75.5463C580.173 75.5463 582.506 78.5463 584.673 78.5463H595.673L602.173 82.0463C592.352 76.0125 600.015 78.1504 614.673 82.0463C616.39 82.5027 620.043 82.3104 623.031 82.161C623.908 82.0882 624.944 82.0463 626.173 82.0463Z" fill="#FFFDFD"/>
<path d="M442.673 83C438.343 79.5201 433.33 80.6765 424.173 83M424.173 83C422.655 76.8095 430.974 77.9124 455.173 84.5463L459.173 82.0463H466.173L474.173 84.5463L481.173 82.0463L484.673 78.5463H491.673C493.007 78.5463 496.173 78.5463 498.173 78.5463C500.673 78.5463 504.173 77.0463 505.673 77.0463C507.173 77.0463 512.173 77.0463 513.673 77.0463C515.173 77.0463 516.248 74.6527 518.673 74.0463C520.673 73.5463 522.89 77.3304 524.673 74.0463C524.673 74.0463 529.34 76.213 530.173 75.5463C531.957 78.5018 533.265 77.3072 538.173 77.0463H544.673L548.173 75.5463C551.32 75.773 552.63 76.168 554.673 77.0463C559.001 79.1242 560.032 78.4712 561.673 77.0463C564.952 78.4767 566.214 78.0404 567.673 75.5463C568.766 75.3416 572.33 76.3788 573.673 77.0463C574.569 77.4913 575.673 75.5463 578.173 75.5463C580.173 75.5463 582.506 78.5463 584.673 78.5463H595.673L602.173 82.0463C592.352 76.0125 600.015 78.1504 614.673 82.0463C617.089 82.6885 623.34 82.0463 626.173 82.0463C616.673 82.0463 618.673 84.5463 616.673 84.5463C614.173 84.5463 611.173 84.5463 608.173 84.5463C605.173 84.5463 605.173 83.0463 602.173 84.5463C599.173 86.0463 596.673 83.0463 594.173 80.5463C591.673 78.0463 592.173 82.0463 589.173 82.0463C586.173 82.0463 584.173 78.5463 581.173 78.5463C578.173 78.5463 574.673 81.0463 570.173 79.5463C565.673 78.0463 565.173 80.5463 563.673 80.5463C562.473 80.5463 559.506 80.5463 558.173 80.5463C554.208 78.6489 548.665 79.5781 548.173 82.0463C547.783 84.0078 544.007 81.0463 543.173 81.0463C541.826 78.0371 536.404 77.8961 532.673 79.5463C529.887 80.7786 527.84 78.713 527.173 78.5463C524.693 80.9159 516.318 82.9756 513.673 82.0463C511.786 81.3834 509.673 82.0463 504.173 84.5463C498.673 87.0463 496.173 84.5463 491.673 84.5463C488.073 84.5463 487.84 85.5463 488.173 86.0463C487.673 86.5463 486.273 87.5463 484.673 87.5463C482.673 87.5463 479.173 87.5463 472.673 87.5463C466.173 87.5463 469.673 86.0463 466.173 86.0463C463.373 86.0463 462.006 86.0463 461.673 86.0463L457.173 87.5463C452.651 82.7342 449.109 80.7656 439.673 79.5C435.006 79.7336 431.381 80.6904 424.173 83Z" stroke="white"/>
<path d="M1596 185.316C1594.09 185.316 1591.5 185.371 1588.66 185.434C1574.87 185.941 1577.89 187.9 1573.82 187.9H1553.98C1546.97 187.9 1546.97 186.349 1539.97 187.9C1532.96 189.45 1527.13 186.349 1521.29 183.766C1515.46 181.182 1516.62 185.316 1509.62 185.316C1502.61 185.316 1497.95 181.699 1490.94 181.699C1483.94 181.699 1475.77 184.282 1465.26 182.732C1454.75 181.182 1453.59 183.766 1450.09 183.766H1437.24C1427.99 181.805 1415.05 182.765 1413.9 185.316C1412.99 187.343 1404.17 184.282 1402.23 184.282C1399.08 181.172 1386.42 181.027 1377.71 182.732C1371.21 184.006 1366.43 181.871 1364.87 181.699C1359.08 184.148 1339.53 186.276 1333.35 185.316C1328.95 184.631 1324.02 185.316 1311.17 187.9C1298.33 190.483 1292.5 187.9 1281.99 187.9C1273.59 187.9 1273.04 188.933 1273.82 189.45C1272.65 189.967 1269.38 191 1265.65 191H1237.63C1222.46 191 1230.63 189.45 1222.46 189.45H1211.95L1201.45 191C1198.41 189.57 1195.56 188.383 1192.52 187.386C1175.85 185.382 1162.6 183.915 1152.37 183.037C1144.71 183.537 1136.84 184.537 1124.4 186.301C1122.03 182.02 1129.94 181.114 1152.37 183.037C1155.07 182.861 1157.75 182.747 1160.59 182.684C1176.28 183.616 1185 184.917 1192.52 187.386C1193.92 187.553 1195.34 187.725 1196.78 187.9L1206.12 185.316H1222.46L1241.14 187.9L1257.48 185.316L1265.65 181.699H1281.99H1297.17C1303 181.699 1311.17 180.148 1314.68 180.148H1333.35C1336.86 180.148 1339.36 177.675 1345.03 177.048C1349.7 176.531 1354.87 180.442 1359.03 177.048C1359.03 177.048 1369.93 179.287 1371.88 178.598C1376.04 181.653 1379.09 180.418 1390.55 180.148H1405.73L1413.9 178.598C1421.25 178.832 1424.3 179.241 1429.07 180.148C1439.18 182.296 1441.59 181.621 1445.42 180.148C1453.07 181.627 1456.02 181.176 1459.42 178.598C1461.98 178.387 1470.3 179.458 1473.43 180.148C1475.52 180.608 1478.1 178.598 1483.94 178.598C1488.61 178.598 1494.05 181.699 1499.11 181.699H1524.79L1539.97 185.316C1517.04 179.08 1534.93 181.289 1569.15 185.316C1573.16 185.787 1581.69 185.589 1588.66 185.434C1590.71 185.359 1593.13 185.316 1596 185.316Z" fill="#FFFDFD"/>
<path d="M1167.59 186.301C1157.48 182.705 1145.78 183.9 1124.4 186.301M1124.4 186.301C1120.86 179.904 1140.28 181.043 1196.78 187.9L1206.12 185.316H1222.46L1241.14 187.9L1257.48 185.316L1265.65 181.699H1281.99C1285.1 181.699 1292.5 181.699 1297.17 181.699C1303 181.699 1311.17 180.148 1314.68 180.148C1318.18 180.148 1329.85 180.148 1333.35 180.148C1336.86 180.148 1339.36 177.675 1345.03 177.048C1349.7 176.531 1354.87 180.442 1359.03 177.048C1359.03 177.048 1369.93 179.287 1371.88 178.598C1376.04 181.653 1379.09 180.418 1390.55 180.148H1405.73L1413.9 178.598C1421.25 178.832 1424.3 179.241 1429.07 180.148C1439.18 182.296 1441.59 181.621 1445.42 180.148C1453.07 181.627 1456.02 181.176 1459.42 178.598C1461.98 178.387 1470.3 179.458 1473.43 180.148C1475.52 180.608 1478.1 178.598 1483.94 178.598C1488.61 178.598 1494.05 181.699 1499.11 181.699H1524.79L1539.97 185.316C1517.04 179.08 1534.93 181.289 1569.15 185.316C1574.79 185.979 1589.39 185.316 1596 185.316C1573.82 185.316 1578.49 187.9 1573.82 187.9C1567.98 187.9 1560.98 187.9 1553.98 187.9C1546.97 187.9 1546.97 186.349 1539.97 187.9C1532.96 189.45 1527.13 186.349 1521.29 183.766C1515.46 181.182 1516.62 185.316 1509.62 185.316C1502.61 185.316 1497.95 181.699 1490.94 181.699C1483.94 181.699 1475.77 184.282 1465.26 182.732C1454.75 181.182 1453.59 183.766 1450.09 183.766C1447.28 183.766 1440.36 183.766 1437.24 183.766C1427.99 181.805 1415.05 182.765 1413.9 185.316C1412.99 187.343 1404.17 184.282 1402.23 184.282C1399.08 181.172 1386.42 181.027 1377.71 182.732C1371.21 184.006 1366.43 181.871 1364.87 181.699C1359.08 184.148 1339.53 186.276 1333.35 185.316C1328.95 184.631 1324.02 185.316 1311.17 187.9C1298.33 190.483 1292.5 187.9 1281.99 187.9C1273.59 187.9 1273.04 188.933 1273.82 189.45C1272.65 189.967 1269.38 191 1265.65 191C1260.98 191 1252.81 191 1237.63 191C1222.46 191 1230.63 189.45 1222.46 189.45C1215.92 189.45 1212.73 189.45 1211.95 189.45L1201.45 191C1190.89 186.027 1182.62 183.992 1160.59 182.684C1149.69 182.926 1141.23 183.914 1124.4 186.301Z" stroke="white"/>
<path d="M1588 302.316C1586.12 302.316 1583.58 302.371 1580.79 302.434C1567.23 302.941 1570.19 304.9 1566.2 304.9H1546.69C1539.8 304.9 1539.8 303.349 1532.92 304.9C1526.03 306.45 1520.3 303.349 1514.56 300.766C1508.82 298.182 1509.97 302.316 1503.08 302.316C1496.2 302.316 1491.61 298.699 1484.72 298.699C1477.84 298.699 1469.8 301.282 1459.48 299.732C1449.15 298.182 1448 300.766 1444.56 300.766H1431.94C1422.83 298.805 1410.11 299.765 1408.99 302.316C1408.09 304.343 1399.42 301.282 1397.51 301.282C1394.42 298.172 1381.97 298.027 1373.41 299.732C1367.02 301.006 1362.32 298.871 1360.79 298.699C1355.1 301.148 1335.88 303.276 1329.81 302.316C1325.47 301.631 1320.63 302.316 1308 304.9C1295.38 307.483 1289.64 304.9 1279.31 304.9C1271.05 304.9 1270.52 305.933 1271.28 306.45C1270.13 306.967 1266.92 308 1263.25 308H1235.71C1220.79 308 1228.82 306.45 1220.79 306.45H1210.46L1200.13 308C1197.15 306.57 1194.35 305.383 1191.36 304.386C1174.97 302.382 1161.94 300.915 1151.88 300.037C1144.36 300.537 1136.62 301.537 1124.4 303.301C1122.07 299.02 1129.84 298.114 1151.88 300.037C1154.54 299.861 1157.18 299.747 1159.97 299.684C1175.4 300.616 1183.96 301.917 1191.36 304.386C1192.73 304.553 1194.13 304.725 1195.54 304.9L1204.72 302.316H1220.79L1239.15 304.9L1255.22 302.316L1263.25 298.699H1279.31H1294.23C1299.97 298.699 1308 297.148 1311.45 297.148H1329.81C1333.25 297.148 1335.71 294.675 1341.28 294.048C1345.87 293.531 1350.96 297.442 1355.05 294.048C1355.05 294.048 1365.76 296.287 1367.67 295.598C1371.77 298.653 1374.77 297.418 1386.03 297.148H1400.95L1408.99 295.598C1416.21 295.832 1419.21 296.241 1423.9 297.148C1433.84 299.296 1436.2 298.621 1439.97 297.148C1447.49 298.627 1450.39 298.176 1453.74 295.598C1456.25 295.387 1464.43 296.458 1467.51 297.148C1469.56 297.608 1472.1 295.598 1477.84 295.598C1482.43 295.598 1487.78 298.699 1492.75 298.699H1518L1532.92 302.316C1510.38 296.08 1527.97 298.289 1561.61 302.316C1565.55 302.787 1573.93 302.589 1580.79 302.434C1582.8 302.359 1585.18 302.316 1588 302.316Z" fill="#FFFDFD"/>
<path d="M1166.86 303.301C1156.92 299.705 1145.41 300.9 1124.4 303.301M1124.4 303.301C1120.91 296.904 1140.01 298.043 1195.54 304.9L1204.72 302.316H1220.79L1239.15 304.9L1255.22 302.316L1263.25 298.699H1279.31C1282.37 298.699 1289.64 298.699 1294.23 298.699C1299.97 298.699 1308 297.148 1311.45 297.148C1314.89 297.148 1326.36 297.148 1329.81 297.148C1333.25 297.148 1335.71 294.675 1341.28 294.048C1345.87 293.531 1350.96 297.442 1355.05 294.048C1355.05 294.048 1365.76 296.287 1367.67 295.598C1371.77 298.653 1374.77 297.418 1386.03 297.148H1400.95L1408.99 295.598C1416.21 295.832 1419.21 296.241 1423.9 297.148C1433.84 299.296 1436.2 298.621 1439.97 297.148C1447.49 298.627 1450.39 298.176 1453.74 295.598C1456.25 295.387 1464.43 296.458 1467.51 297.148C1469.56 297.608 1472.1 295.598 1477.84 295.598C1482.43 295.598 1487.78 298.699 1492.75 298.699H1518L1532.92 302.316C1510.38 296.08 1527.97 298.289 1561.61 302.316C1567.15 302.979 1581.5 302.316 1588 302.316C1566.2 302.316 1570.79 304.9 1566.2 304.9C1560.46 304.9 1553.57 304.9 1546.69 304.9C1539.8 304.9 1539.8 303.349 1532.92 304.9C1526.03 306.45 1520.3 303.349 1514.56 300.766C1508.82 298.182 1509.97 302.316 1503.08 302.316C1496.2 302.316 1491.61 298.699 1484.72 298.699C1477.84 298.699 1469.8 301.282 1459.48 299.732C1449.15 298.182 1448 300.766 1444.56 300.766C1441.8 300.766 1435 300.766 1431.94 300.766C1422.83 298.805 1410.11 299.765 1408.99 302.316C1408.09 304.343 1399.42 301.282 1397.51 301.282C1394.42 298.172 1381.97 298.027 1373.41 299.732C1367.02 301.006 1362.32 298.871 1360.79 298.699C1355.1 301.148 1335.88 303.276 1329.81 302.316C1325.47 301.631 1320.63 302.316 1308 304.9C1295.38 307.483 1289.64 304.9 1279.31 304.9C1271.05 304.9 1270.52 305.933 1271.28 306.45C1270.13 306.967 1266.92 308 1263.25 308C1258.66 308 1250.63 308 1235.71 308C1220.79 308 1228.82 306.45 1220.79 306.45C1214.36 306.45 1211.23 306.45 1210.46 306.45L1200.13 308C1189.76 303.027 1181.63 300.992 1159.97 299.684C1149.26 299.926 1140.94 300.914 1124.4 303.301Z" stroke="white"/>
<path d="M1472.17 99.0463C1471.35 99.0463 1470.25 99.1001 1469.03 99.161C1463.12 99.6512 1464.41 101.546 1462.67 101.546H1454.17C1451.17 101.546 1451.17 100.046 1448.17 101.546C1445.17 103.046 1442.67 100.046 1440.17 97.5463C1437.67 95.0463 1438.17 99.0463 1435.17 99.0463C1432.17 99.0463 1430.17 95.5463 1427.17 95.5463C1424.17 95.5463 1420.67 98.0463 1416.17 96.5463C1411.67 95.0463 1411.17 97.5463 1409.67 97.5463H1404.17C1400.21 95.6489 1394.66 96.5781 1394.17 99.0463C1393.78 101.008 1390.01 98.0463 1389.17 98.0463C1387.83 95.0371 1382.4 94.8961 1378.67 96.5463C1375.89 97.7786 1373.84 95.713 1373.17 95.5463C1370.69 97.9159 1362.32 99.9756 1359.67 99.0463C1357.79 98.3834 1355.67 99.0463 1350.17 101.546C1344.67 104.046 1342.17 101.546 1337.67 101.546C1334.07 101.546 1333.84 102.546 1334.17 103.046C1333.67 103.546 1332.27 104.546 1330.67 104.546H1318.67C1312.17 104.546 1315.67 103.046 1312.17 103.046H1307.67L1303.17 104.546C1301.87 103.162 1300.65 102.014 1299.35 101.049C1292.21 99.1102 1286.53 97.691 1282.15 96.8418C1278.87 97.3251 1275.5 98.2931 1270.17 100C1269.16 95.8577 1272.55 94.981 1282.15 96.8418C1283.31 96.6712 1284.46 96.561 1285.67 96.5C1292.4 97.4016 1296.13 98.6601 1299.35 101.049C1299.95 101.211 1300.56 101.377 1301.17 101.546L1305.17 99.0463H1312.17L1320.17 101.546L1327.17 99.0463L1330.67 95.5463H1337.67H1344.17C1346.67 95.5463 1350.17 94.0463 1351.67 94.0463H1359.67C1361.17 94.0463 1362.25 91.6527 1364.67 91.0463C1366.67 90.5463 1368.89 94.3304 1370.67 91.0463C1370.67 91.0463 1375.34 93.213 1376.17 92.5463C1377.96 95.5018 1379.26 94.3072 1384.17 94.0463H1390.67L1394.17 92.5463C1397.32 92.773 1398.63 93.168 1400.67 94.0463C1405 96.1242 1406.03 95.4712 1407.67 94.0463C1410.95 95.4767 1412.21 95.0404 1413.67 92.5463C1414.77 92.3416 1418.33 93.3788 1419.67 94.0463C1420.57 94.4913 1421.67 92.5463 1424.17 92.5463C1426.17 92.5463 1428.51 95.5463 1430.67 95.5463H1441.67L1448.17 99.0463C1438.35 93.0125 1446.02 95.1504 1460.67 99.0463C1462.39 99.5027 1466.04 99.3104 1469.03 99.161C1469.91 99.0882 1470.94 99.0463 1472.17 99.0463Z" fill="#FFFDFD"/>
<path d="M1288.67 100C1284.34 96.5201 1279.33 97.6765 1270.17 100M1270.17 100C1268.65 93.8095 1276.97 94.9124 1301.17 101.546L1305.17 99.0463H1312.17L1320.17 101.546L1327.17 99.0463L1330.67 95.5463H1337.67C1339.01 95.5463 1342.17 95.5463 1344.17 95.5463C1346.67 95.5463 1350.17 94.0463 1351.67 94.0463C1353.17 94.0463 1358.17 94.0463 1359.67 94.0463C1361.17 94.0463 1362.25 91.6527 1364.67 91.0463C1366.67 90.5463 1368.89 94.3304 1370.67 91.0463C1370.67 91.0463 1375.34 93.213 1376.17 92.5463C1377.96 95.5018 1379.26 94.3072 1384.17 94.0463H1390.67L1394.17 92.5463C1397.32 92.773 1398.63 93.168 1400.67 94.0463C1405 96.1242 1406.03 95.4712 1407.67 94.0463C1410.95 95.4767 1412.21 95.0404 1413.67 92.5463C1414.77 92.3416 1418.33 93.3788 1419.67 94.0463C1420.57 94.4913 1421.67 92.5463 1424.17 92.5463C1426.17 92.5463 1428.51 95.5463 1430.67 95.5463H1441.67L1448.17 99.0463C1438.35 93.0125 1446.02 95.1504 1460.67 99.0463C1463.09 99.6885 1469.34 99.0463 1472.17 99.0463C1462.67 99.0463 1464.67 101.546 1462.67 101.546C1460.17 101.546 1457.17 101.546 1454.17 101.546C1451.17 101.546 1451.17 100.046 1448.17 101.546C1445.17 103.046 1442.67 100.046 1440.17 97.5463C1437.67 95.0463 1438.17 99.0463 1435.17 99.0463C1432.17 99.0463 1430.17 95.5463 1427.17 95.5463C1424.17 95.5463 1420.67 98.0463 1416.17 96.5463C1411.67 95.0463 1411.17 97.5463 1409.67 97.5463C1408.47 97.5463 1405.51 97.5463 1404.17 97.5463C1400.21 95.6489 1394.66 96.5781 1394.17 99.0463C1393.78 101.008 1390.01 98.0463 1389.17 98.0463C1387.83 95.0371 1382.4 94.8961 1378.67 96.5463C1375.89 97.7786 1373.84 95.713 1373.17 95.5463C1370.69 97.9159 1362.32 99.9756 1359.67 99.0463C1357.79 98.3834 1355.67 99.0463 1350.17 101.546C1344.67 104.046 1342.17 101.546 1337.67 101.546C1334.07 101.546 1333.84 102.546 1334.17 103.046C1333.67 103.546 1332.27 104.546 1330.67 104.546C1328.67 104.546 1325.17 104.546 1318.67 104.546C1312.17 104.546 1315.67 103.046 1312.17 103.046C1309.37 103.046 1308.01 103.046 1307.67 103.046L1303.17 104.546C1298.65 99.7342 1295.11 97.7656 1285.67 96.5C1281.01 96.7336 1277.38 97.6904 1270.17 100Z" stroke="white"/>
<path d="M331.173 314.046C330.353 314.046 329.247 314.1 328.031 314.161C322.124 314.651 323.414 316.546 321.673 316.546H313.173C310.173 316.546 310.173 315.046 307.173 316.546C304.173 318.046 301.673 315.046 299.173 312.546C296.673 310.046 297.173 314.046 294.173 314.046C291.173 314.046 289.173 310.546 286.173 310.546C283.173 310.546 279.673 313.046 275.173 311.546C270.673 310.046 270.173 312.546 268.673 312.546H263.173C259.208 310.649 253.665 311.578 253.173 314.046C252.783 316.008 249.007 313.046 248.173 313.046C246.826 310.037 241.404 309.896 237.673 311.546C234.887 312.779 232.84 310.713 232.173 310.546C229.693 312.916 221.318 314.976 218.673 314.046C216.786 313.383 214.673 314.046 209.173 316.546C203.673 319.046 201.173 316.546 196.673 316.546C193.073 316.546 192.84 317.546 193.173 318.046C192.673 318.546 191.273 319.546 189.673 319.546H177.673C171.173 319.546 174.673 318.046 171.173 318.046H166.673L162.173 319.546C160.873 318.162 159.653 317.014 158.351 316.049C151.209 314.11 145.532 312.691 141.15 311.842C137.87 312.325 134.5 313.293 129.173 315C128.157 310.858 131.546 309.981 141.15 311.842C142.308 311.671 143.455 311.561 144.673 311.5C151.395 312.402 155.126 313.66 158.351 316.049C158.948 316.211 159.556 316.377 160.173 316.546L164.173 314.046H171.173L179.173 316.546L186.173 314.046L189.673 310.546H196.673H203.173C205.673 310.546 209.173 309.046 210.673 309.046H218.673C220.173 309.046 221.248 306.653 223.673 306.046C225.673 305.546 227.89 309.33 229.673 306.046C229.673 306.046 234.34 308.213 235.173 307.546C236.957 310.502 238.265 309.307 243.173 309.046H249.673L253.173 307.546C256.32 307.773 257.63 308.168 259.673 309.046C264.001 311.124 265.032 310.471 266.673 309.046C269.952 310.477 271.214 310.04 272.673 307.546C273.766 307.342 277.33 308.379 278.673 309.046C279.569 309.491 280.673 307.546 283.173 307.546C285.173 307.546 287.506 310.546 289.673 310.546H300.673L307.173 314.046C297.352 308.013 305.015 310.15 319.673 314.046C321.39 314.503 325.043 314.31 328.031 314.161C328.908 314.088 329.944 314.046 331.173 314.046Z" fill="#FFFDFD"/>
<path d="M147.673 315C143.343 311.52 138.33 312.676 129.173 315M129.173 315C127.655 308.809 135.974 309.912 160.173 316.546L164.173 314.046H171.173L179.173 316.546L186.173 314.046L189.673 310.546H196.673C198.007 310.546 201.173 310.546 203.173 310.546C205.673 310.546 209.173 309.046 210.673 309.046C212.173 309.046 217.173 309.046 218.673 309.046C220.173 309.046 221.248 306.653 223.673 306.046C225.673 305.546 227.89 309.33 229.673 306.046C229.673 306.046 234.34 308.213 235.173 307.546C236.957 310.502 238.265 309.307 243.173 309.046H249.673L253.173 307.546C256.32 307.773 257.63 308.168 259.673 309.046C264.001 311.124 265.032 310.471 266.673 309.046C269.952 310.477 271.214 310.04 272.673 307.546C273.766 307.342 277.33 308.379 278.673 309.046C279.569 309.491 280.673 307.546 283.173 307.546C285.173 307.546 287.506 310.546 289.673 310.546H300.673L307.173 314.046C297.352 308.013 305.015 310.15 319.673 314.046C322.089 314.689 328.34 314.046 331.173 314.046C321.673 314.046 323.673 316.546 321.673 316.546C319.173 316.546 316.173 316.546 313.173 316.546C310.173 316.546 310.173 315.046 307.173 316.546C304.173 318.046 301.673 315.046 299.173 312.546C296.673 310.046 297.173 314.046 294.173 314.046C291.173 314.046 289.173 310.546 286.173 310.546C283.173 310.546 279.673 313.046 275.173 311.546C270.673 310.046 270.173 312.546 268.673 312.546C267.473 312.546 264.506 312.546 263.173 312.546C259.208 310.649 253.665 311.578 253.173 314.046C252.783 316.008 249.007 313.046 248.173 313.046C246.826 310.037 241.404 309.896 237.673 311.546C234.887 312.779 232.84 310.713 232.173 310.546C229.693 312.916 221.318 314.976 218.673 314.046C216.786 313.383 214.673 314.046 209.173 316.546C203.673 319.046 201.173 316.546 196.673 316.546C193.073 316.546 192.84 317.546 193.173 318.046C192.673 318.546 191.273 319.546 189.673 319.546C187.673 319.546 184.173 319.546 177.673 319.546C171.173 319.546 174.673 318.046 171.173 318.046C168.373 318.046 167.006 318.046 166.673 318.046L162.173 319.546C157.651 314.734 154.109 312.766 144.673 311.5C140.006 311.734 136.381 312.69 129.173 315Z" stroke="white"/>
<path d="M862.173 106.046C861.353 106.046 860.247 106.1 859.031 106.161C853.124 106.651 854.414 108.546 852.673 108.546H844.173C841.173 108.546 841.173 107.046 838.173 108.546C835.173 110.046 832.673 107.046 830.173 104.546C827.673 102.046 828.173 106.046 825.173 106.046C822.173 106.046 820.173 102.546 817.173 102.546C814.173 102.546 810.673 105.046 806.173 103.546C801.673 102.046 801.173 104.546 799.673 104.546H794.173C790.208 102.649 784.665 103.578 784.173 106.046C783.783 108.008 780.007 105.046 779.173 105.046C777.826 102.037 772.404 101.896 768.673 103.546C765.887 104.779 763.84 102.713 763.173 102.546C760.693 104.916 752.318 106.976 749.673 106.046C747.786 105.383 745.673 106.046 740.173 108.546C734.673 111.046 732.173 108.546 727.673 108.546C724.073 108.546 723.84 109.546 724.173 110.046C723.673 110.546 722.273 111.546 720.673 111.546H708.673C702.173 111.546 705.673 110.046 702.173 110.046H697.673L693.173 111.546C691.873 110.162 690.653 109.014 689.351 108.049C682.209 106.11 676.532 104.691 672.15 103.842C668.87 104.325 665.5 105.293 660.173 107C659.157 102.858 662.546 101.981 672.15 103.842C673.308 103.671 674.455 103.561 675.673 103.5C682.395 104.402 686.126 105.66 689.351 108.049C689.948 108.211 690.556 108.377 691.173 108.546L695.173 106.046H702.173L710.173 108.546L717.173 106.046L720.673 102.546H727.673H734.173C736.673 102.546 740.173 101.046 741.673 101.046H749.673C751.173 101.046 752.248 98.6527 754.673 98.0463C756.673 97.5463 758.89 101.33 760.673 98.0463C760.673 98.0463 765.34 100.213 766.173 99.5463C767.957 102.502 769.265 101.307 774.173 101.046H780.673L784.173 99.5463C787.32 99.773 788.63 100.168 790.673 101.046C795.001 103.124 796.032 102.471 797.673 101.046C800.952 102.477 802.214 102.04 803.673 99.5463C804.766 99.3416 808.33 100.379 809.673 101.046C810.569 101.491 811.673 99.5463 814.173 99.5463C816.173 99.5463 818.506 102.546 820.673 102.546H831.673L838.173 106.046C828.352 100.013 836.015 102.15 850.673 106.046C852.39 106.503 856.043 106.31 859.031 106.161C859.908 106.088 860.944 106.046 862.173 106.046Z" fill="#FFFDFD"/>
<path d="M678.673 107C674.343 103.52 669.33 104.676 660.173 107M660.173 107C658.655 100.809 666.974 101.912 691.173 108.546L695.173 106.046H702.173L710.173 108.546L717.173 106.046L720.673 102.546H727.673C729.007 102.546 732.173 102.546 734.173 102.546C736.673 102.546 740.173 101.046 741.673 101.046C743.173 101.046 748.173 101.046 749.673 101.046C751.173 101.046 752.248 98.6527 754.673 98.0463C756.673 97.5463 758.89 101.33 760.673 98.0463C760.673 98.0463 765.34 100.213 766.173 99.5463C767.957 102.502 769.265 101.307 774.173 101.046H780.673L784.173 99.5463C787.32 99.773 788.63 100.168 790.673 101.046C795.001 103.124 796.032 102.471 797.673 101.046C800.952 102.477 802.214 102.04 803.673 99.5463C804.766 99.3416 808.33 100.379 809.673 101.046C810.569 101.491 811.673 99.5463 814.173 99.5463C816.173 99.5463 818.506 102.546 820.673 102.546H831.673L838.173 106.046C828.352 100.013 836.015 102.15 850.673 106.046C853.089 106.689 859.34 106.046 862.173 106.046C852.673 106.046 854.673 108.546 852.673 108.546C850.173 108.546 847.173 108.546 844.173 108.546C841.173 108.546 841.173 107.046 838.173 108.546C835.173 110.046 832.673 107.046 830.173 104.546C827.673 102.046 828.173 106.046 825.173 106.046C822.173 106.046 820.173 102.546 817.173 102.546C814.173 102.546 810.673 105.046 806.173 103.546C801.673 102.046 801.173 104.546 799.673 104.546C798.473 104.546 795.506 104.546 794.173 104.546C790.208 102.649 784.665 103.578 784.173 106.046C783.783 108.008 780.007 105.046 779.173 105.046C777.826 102.037 772.404 101.896 768.673 103.546C765.887 104.779 763.84 102.713 763.173 102.546C760.693 104.916 752.318 106.976 749.673 106.046C747.786 105.383 745.673 106.046 740.173 108.546C734.673 111.046 732.173 108.546 727.673 108.546C724.073 108.546 723.84 109.546 724.173 110.046C723.673 110.546 722.273 111.546 720.673 111.546C718.673 111.546 715.173 111.546 708.673 111.546C702.173 111.546 705.673 110.046 702.173 110.046C699.373 110.046 698.006 110.046 697.673 110.046L693.173 111.546C688.651 106.734 685.109 104.766 675.673 103.5C671.006 103.734 667.381 104.69 660.173 107Z" stroke="white"/>
<path d="M249.173 85.0463C248.353 85.0463 247.247 85.1001 246.031 85.161C240.124 85.6512 241.414 87.5463 239.673 87.5463H231.173C228.173 87.5463 228.173 86.0463 225.173 87.5463C222.173 89.0463 219.673 86.0463 217.173 83.5463C214.673 81.0463 215.173 85.0463 212.173 85.0463C209.173 85.0463 207.173 81.5463 204.173 81.5463C201.173 81.5463 197.673 84.0463 193.173 82.5463C188.673 81.0463 188.173 83.5463 186.673 83.5463H181.173C177.208 81.6489 171.665 82.5781 171.173 85.0463C170.783 87.0078 167.007 84.0463 166.173 84.0463C164.826 81.0371 159.404 80.8961 155.673 82.5463C152.887 83.7786 150.84 81.713 150.173 81.5463C147.693 83.9159 139.318 85.9756 136.673 85.0463C134.786 84.3834 132.673 85.0463 127.173 87.5463C121.673 90.0463 119.173 87.5463 114.673 87.5463C111.073 87.5463 110.84 88.5463 111.173 89.0463C110.673 89.5463 109.273 90.5463 107.673 90.5463H95.6732C89.1732 90.5463 92.6732 89.0463 89.1732 89.0463H84.6732L80.1732 90.5463C78.8728 89.1625 77.6534 88.0137 76.3515 87.0493C69.2088 85.1102 63.5322 83.691 59.1498 82.8418C55.8698 83.3251 52.4997 84.2931 47.1732 86C46.1573 81.8577 49.5461 80.981 59.1498 82.8418C60.3081 82.6712 61.4551 82.561 62.6732 82.5C69.3951 83.4016 73.1263 84.6601 76.3515 87.0493C76.9484 87.2113 77.5556 87.377 78.1732 87.5463L82.1732 85.0463H89.1732L97.1732 87.5463L104.173 85.0463L107.673 81.5463H114.673H121.173C123.673 81.5463 127.173 80.0463 128.673 80.0463H136.673C138.173 80.0463 139.248 77.6527 141.673 77.0463C143.673 76.5463 145.89 80.3304 147.673 77.0463C147.673 77.0463 152.34 79.213 153.173 78.5463C154.957 81.5018 156.265 80.3072 161.173 80.0463H167.673L171.173 78.5463C174.32 78.773 175.63 79.168 177.673 80.0463C182.001 82.1242 183.032 81.4712 184.673 80.0463C187.952 81.4767 189.214 81.0404 190.673 78.5463C191.766 78.3416 195.33 79.3788 196.673 80.0463C197.569 80.4913 198.673 78.5463 201.173 78.5463C203.173 78.5463 205.506 81.5463 207.673 81.5463H218.673L225.173 85.0463C215.352 79.0125 223.015 81.1504 237.673 85.0463C239.39 85.5027 243.043 85.3104 246.031 85.161C246.908 85.0882 247.944 85.0463 249.173 85.0463Z" fill="#FFFDFD"/>
<path d="M65.6732 86C61.3426 82.5201 56.3302 83.6765 47.1732 86M47.1732 86C45.6549 79.8095 53.9744 80.9124 78.1732 87.5463L82.1732 85.0463H89.1732L97.1732 87.5463L104.173 85.0463L107.673 81.5463H114.673C116.007 81.5463 119.173 81.5463 121.173 81.5463C123.673 81.5463 127.173 80.0463 128.673 80.0463C130.173 80.0463 135.173 80.0463 136.673 80.0463C138.173 80.0463 139.248 77.6527 141.673 77.0463C143.673 76.5463 145.89 80.3304 147.673 77.0463C147.673 77.0463 152.34 79.213 153.173 78.5463C154.957 81.5018 156.265 80.3072 161.173 80.0463H167.673L171.173 78.5463C174.32 78.773 175.63 79.168 177.673 80.0463C182.001 82.1242 183.032 81.4712 184.673 80.0463C187.952 81.4767 189.214 81.0404 190.673 78.5463C191.766 78.3416 195.33 79.3788 196.673 80.0463C197.569 80.4913 198.673 78.5463 201.173 78.5463C203.173 78.5463 205.506 81.5463 207.673 81.5463H218.673L225.173 85.0463C215.352 79.0125 223.015 81.1504 237.673 85.0463C240.089 85.6885 246.34 85.0463 249.173 85.0463C239.673 85.0463 241.673 87.5463 239.673 87.5463C237.173 87.5463 234.173 87.5463 231.173 87.5463C228.173 87.5463 228.173 86.0463 225.173 87.5463C222.173 89.0463 219.673 86.0463 217.173 83.5463C214.673 81.0463 215.173 85.0463 212.173 85.0463C209.173 85.0463 207.173 81.5463 204.173 81.5463C201.173 81.5463 197.673 84.0463 193.173 82.5463C188.673 81.0463 188.173 83.5463 186.673 83.5463C185.473 83.5463 182.506 83.5463 181.173 83.5463C177.208 81.6489 171.665 82.5781 171.173 85.0463C170.783 87.0078 167.007 84.0463 166.173 84.0463C164.826 81.0371 159.404 80.8961 155.673 82.5463C152.887 83.7786 150.84 81.713 150.173 81.5463C147.693 83.9159 139.318 85.9756 136.673 85.0463C134.786 84.3834 132.673 85.0463 127.173 87.5463C121.673 90.0463 119.173 87.5463 114.673 87.5463C111.073 87.5463 110.84 88.5463 111.173 89.0463C110.673 89.5463 109.273 90.5463 107.673 90.5463C105.673 90.5463 102.173 90.5463 95.6732 90.5463C89.1732 90.5463 92.6732 89.0463 89.1732 89.0463C86.3732 89.0463 85.0065 89.0463 84.6732 89.0463L80.1732 90.5463C75.6514 85.7342 72.1085 83.7656 62.6732 82.5C58.006 82.7336 54.3807 83.6904 47.1732 86Z" stroke="white"/>
<path d="M949.173 83.0463C948.353 83.0463 947.247 83.1001 946.031 83.161C940.124 83.6512 941.414 85.5463 939.673 85.5463H931.173C928.173 85.5463 928.173 84.0463 925.173 85.5463C922.173 87.0463 919.673 84.0463 917.173 81.5463C914.673 79.0463 915.173 83.0463 912.173 83.0463C909.173 83.0463 907.173 79.5463 904.173 79.5463C901.173 79.5463 897.673 82.0463 893.173 80.5463C888.673 79.0463 888.173 81.5463 886.673 81.5463H881.173C877.208 79.6489 871.665 80.5781 871.173 83.0463C870.783 85.0078 867.007 82.0463 866.173 82.0463C864.826 79.0371 859.404 78.8961 855.673 80.5463C852.887 81.7786 850.84 79.713 850.173 79.5463C847.693 81.9159 839.318 83.9756 836.673 83.0463C834.786 82.3834 832.673 83.0463 827.173 85.5463C821.673 88.0463 819.173 85.5463 814.673 85.5463C811.073 85.5463 810.84 86.5463 811.173 87.0463C810.673 87.5463 809.273 88.5463 807.673 88.5463H795.673C789.173 88.5463 792.673 87.0463 789.173 87.0463H784.673L780.173 88.5463C778.873 87.1625 777.653 86.0137 776.351 85.0493C769.209 83.1102 763.532 81.691 759.15 80.8418C755.87 81.3251 752.5 82.2931 747.173 84C746.157 79.8577 749.546 78.981 759.15 80.8418C760.308 80.6712 761.455 80.561 762.673 80.5C769.395 81.4016 773.126 82.6601 776.351 85.0493C776.948 85.2113 777.556 85.377 778.173 85.5463L782.173 83.0463H789.173L797.173 85.5463L804.173 83.0463L807.673 79.5463H814.673H821.173C823.673 79.5463 827.173 78.0463 828.673 78.0463H836.673C838.173 78.0463 839.248 75.6527 841.673 75.0463C843.673 74.5463 845.89 78.3304 847.673 75.0463C847.673 75.0463 852.34 77.213 853.173 76.5463C854.957 79.5018 856.265 78.3072 861.173 78.0463H867.673L871.173 76.5463C874.32 76.773 875.63 77.168 877.673 78.0463C882.001 80.1242 883.032 79.4712 884.673 78.0463C887.952 79.4767 889.214 79.0404 890.673 76.5463C891.766 76.3416 895.33 77.3788 896.673 78.0463C897.569 78.4913 898.673 76.5463 901.173 76.5463C903.173 76.5463 905.506 79.5463 907.673 79.5463H918.673L925.173 83.0463C915.352 77.0125 923.015 79.1504 937.673 83.0463C939.39 83.5027 943.043 83.3104 946.031 83.161C946.908 83.0882 947.944 83.0463 949.173 83.0463Z" fill="#FFFDFD"/>
<path d="M765.673 84C761.343 80.5201 756.33 81.6765 747.173 84M747.173 84C745.655 77.8095 753.974 78.9124 778.173 85.5463L782.173 83.0463H789.173L797.173 85.5463L804.173 83.0463L807.673 79.5463H814.673C816.007 79.5463 819.173 79.5463 821.173 79.5463C823.673 79.5463 827.173 78.0463 828.673 78.0463C830.173 78.0463 835.173 78.0463 836.673 78.0463C838.173 78.0463 839.248 75.6527 841.673 75.0463C843.673 74.5463 845.89 78.3304 847.673 75.0463C847.673 75.0463 852.34 77.213 853.173 76.5463C854.957 79.5018 856.265 78.3072 861.173 78.0463H867.673L871.173 76.5463C874.32 76.773 875.63 77.168 877.673 78.0463C882.001 80.1242 883.032 79.4712 884.673 78.0463C887.952 79.4767 889.214 79.0404 890.673 76.5463C891.766 76.3416 895.33 77.3788 896.673 78.0463C897.569 78.4913 898.673 76.5463 901.173 76.5463C903.173 76.5463 905.506 79.5463 907.673 79.5463H918.673L925.173 83.0463C915.352 77.0125 923.015 79.1504 937.673 83.0463C940.089 83.6885 946.34 83.0463 949.173 83.0463C939.673 83.0463 941.673 85.5463 939.673 85.5463C937.173 85.5463 934.173 85.5463 931.173 85.5463C928.173 85.5463 928.173 84.0463 925.173 85.5463C922.173 87.0463 919.673 84.0463 917.173 81.5463C914.673 79.0463 915.173 83.0463 912.173 83.0463C909.173 83.0463 907.173 79.5463 904.173 79.5463C901.173 79.5463 897.673 82.0463 893.173 80.5463C888.673 79.0463 888.173 81.5463 886.673 81.5463C885.473 81.5463 882.506 81.5463 881.173 81.5463C877.208 79.6489 871.665 80.5781 871.173 83.0463C870.783 85.0078 867.007 82.0463 866.173 82.0463C864.826 79.0371 859.404 78.8961 855.673 80.5463C852.887 81.7786 850.84 79.713 850.173 79.5463C847.693 81.9159 839.318 83.9756 836.673 83.0463C834.786 82.3834 832.673 83.0463 827.173 85.5463C821.673 88.0463 819.173 85.5463 814.673 85.5463C811.073 85.5463 810.84 86.5463 811.173 87.0463C810.673 87.5463 809.273 88.5463 807.673 88.5463C805.673 88.5463 802.173 88.5463 795.673 88.5463C789.173 88.5463 792.673 87.0463 789.173 87.0463C786.373 87.0463 785.006 87.0463 784.673 87.0463L780.173 88.5463C775.651 83.7342 772.109 81.7656 762.673 80.5C758.006 80.7336 754.381 81.6904 747.173 84Z" stroke="white"/>
<path d="M880.25 306.316C880.25 303.732 901.917 306.316 909 306.316C885.25 306.316 890.25 308.9 885.25 308.9H864C856.5 308.9 856.5 307.349 849 308.9C841.5 310.45 835.25 307.349 829 304.766C822.75 302.182 824 306.316 816.5 306.316C809 306.316 804 302.699 796.5 302.699C789 302.699 780.25 305.282 769 303.732C757.75 302.182 756.5 304.766 752.75 304.766H739C729.087 302.805 715.229 303.765 714 306.316C713.024 308.343 703.583 305.282 701.5 305.282C698.132 302.172 684.577 302.027 675.25 303.732C668.285 305.006 663.167 302.871 661.5 302.699C655.298 305.148 634.363 307.276 627.75 306.316C623.033 305.631 617.75 306.316 604 308.9C590.25 311.483 584 308.9 572.75 308.9C563.75 308.9 563.167 309.933 564 310.45C562.75 310.967 559.25 312 555.25 312H525.25C509 312 517.75 310.45 509 310.45H497.75L486.5 312L467.75 308.9H481.5L491.5 306.316H509L529 308.9L546.5 306.316L555.25 302.699H572.75H589C595.25 302.699 604 301.148 607.75 301.148H627.75C631.5 301.148 634.187 298.675 640.25 298.048C645.25 297.531 650.792 301.442 655.25 298.048C655.25 298.048 666.917 300.287 669 299.598C673.461 302.653 676.729 301.418 689 301.148H705.25L714 299.598C721.867 299.832 725.143 300.241 730.25 301.148C741.07 303.296 743.649 302.621 747.75 301.148C755.946 302.627 759.103 302.176 762.75 299.598C765.482 299.387 774.392 300.458 777.75 301.148C779.989 301.608 782.75 299.598 789 299.598C794 299.598 799.833 302.699 805.25 302.699H832.75L849 306.316C859.417 306.316 880.25 307.556 880.25 306.316Z" fill="#FDFDFD"/>
<path d="M496.234 185.316C496.234 182.732 510.376 185.316 515 185.316C499.497 185.316 502.761 187.9 499.497 187.9H485.626C480.731 187.9 480.731 186.349 475.835 187.9C470.94 189.45 466.86 186.349 462.78 183.766C458.701 181.182 459.517 185.316 454.621 185.316C449.725 185.316 446.462 181.699 441.566 181.699C436.67 181.699 430.959 184.282 423.616 182.732C416.272 181.182 415.456 183.766 413.008 183.766H404.033C397.562 181.805 388.516 182.765 387.714 185.316C387.077 187.343 380.915 184.282 379.555 184.282C377.357 181.172 368.509 181.027 362.42 182.732C357.874 184.006 354.533 181.871 353.445 181.699C349.397 184.148 335.731 186.276 331.415 185.316C328.336 184.631 324.887 185.316 315.912 187.9C306.937 190.483 302.857 187.9 295.514 187.9C289.639 187.9 289.258 188.933 289.802 189.45C288.986 189.967 286.702 191 284.091 191H264.508C253.901 191 259.613 189.45 253.901 189.45H246.558L239.214 191L226.975 187.9H235.951L242.478 185.316H253.901L266.956 187.9L278.379 185.316L284.091 181.699H295.514H306.121C310.201 181.699 315.912 180.148 318.36 180.148H331.415C333.863 180.148 335.616 177.675 339.574 177.048C342.838 176.531 346.455 180.442 349.366 177.048C349.366 177.048 356.981 179.287 358.341 178.598C361.252 181.653 363.386 180.418 371.396 180.148H382.003L387.714 178.598C392.85 178.832 394.988 179.241 398.322 180.148C405.384 182.296 407.067 181.621 409.745 180.148C415.095 181.627 417.155 181.176 419.536 178.598C421.319 178.387 427.135 179.458 429.327 180.148C430.788 180.608 432.591 178.598 436.67 178.598C439.934 178.598 443.742 181.699 447.278 181.699H465.228L475.835 185.316C482.635 185.316 496.234 186.556 496.234 185.316Z" fill="#D9D9D9"/>
<path d="M491.075 183.683C515.577 174.322 531.49 173.542 558.429 181.208C560.932 181.809 562.259 181.894 564.415 181.374C589.933 173.303 592.443 194.361 620.295 186.019C647.907 177.749 674.152 179.094 706.609 187.646C709.727 188.387 711.471 188.466 714.591 188.121C724.6 186.669 750.915 183.247 764.253 185.249C765.442 185.428 766.527 185.649 767.489 185.919C769.771 186.427 772.801 187.177 775 188.002C779 189.502 783 187.503 782.5 191.002C782.001 194.496 774.028 194.004 774 194.002L768.712 195.324C757.933 199.03 725.99 195.142 714.725 193.603C711.608 193.279 709.865 193.352 706.75 194.049C674.33 202.093 648.114 203.359 620.534 195.58C592.712 187.734 590.206 207.54 564.717 199.949C562.563 199.46 561.237 199.539 558.737 200.105C531.828 207.316 515.932 206.583 491.457 197.778C490.798 197.54 490.132 197.297 489.459 197.048C487.741 196.507 486.251 196.304 483.982 196.195C481.11 196.077 478.304 195.885 475.509 195.58C455.557 193.403 436.764 206.031 406.237 194.902C403.706 194.152 401.92 194.165 399.769 194.777C398.75 195.172 397.754 195.531 396.768 195.858C390.112 198.059 383.881 198.794 373.682 199.59C373.408 199.616 373.129 199.638 372.846 199.655C362.276 199.45 345.119 194.834 329.489 195.58C316.865 197.6 311.006 201.356 295.6 197.718C292.971 197.112 291.202 197.147 288.709 198.348C288.008 198.77 287.315 199.156 286.629 199.507C270.091 207.984 258.021 196.69 253.239 197.616C250.829 198.083 242.738 194.848 232.307 192.283C215.686 197.04 206.759 197.172 191.442 193.034C167.06 203.756 108.495 201.744 94.137 191.777C93.6968 191.779 93.2567 191.78 92.8167 191.782C65.8425 199.612 53.2754 197.981 32.8128 192.178C31.1767 192.192 29.5435 192.207 27.9134 192.222C14.0706 196.01 9.37754 195.581 4.08429 192.464C3.60294 192.47 3.12167 192.475 2.64093 192.481C-6.86938 189.823 10.9788 184.684 29.5716 190.349C51.7218 183.535 64.2476 181.37 92.9349 190.349C106.631 179.505 166.095 177.224 190.723 188.725C206.057 184.326 214.995 184.467 231.635 189.524C242.078 186.798 250.177 183.359 252.589 183.855C257.377 184.839 269.461 172.832 286.017 181.844C286.703 182.218 287.398 182.628 288.1 183.076C290.595 184.353 292.367 184.39 294.998 183.746C310.421 179.879 316.288 183.871 328.925 186.019C344.573 186.812 361.749 181.905 372.33 181.688C372.614 181.706 372.893 181.728 373.167 181.756C383.378 182.603 389.616 183.384 396.279 185.724C397.266 186.071 398.264 186.452 399.284 186.872C401.438 187.522 403.225 187.538 405.758 186.74C436.32 174.908 455.134 188.334 475.109 186.019C477.907 185.694 480.715 185.49 483.59 185.365C485.863 185.25 487.355 185.033 489.075 184.458C489.748 184.194 490.414 183.935 491.075 183.683Z" fill="#56B8D7"/>
<path d="M592.395 78.5029C621.953 73.0155 641.149 72.5576 673.646 77.0518C676.666 77.4042 678.266 77.4542 680.868 77.1494C711.65 72.4183 714.678 84.762 748.277 79.8721C781.585 75.0244 813.246 75.8133 852.399 80.8262C856.161 81.2608 858.264 81.3065 862.029 81.1045C874.102 80.2534 905.846 78.2469 921.937 79.4209C923.37 79.5255 924.68 79.6553 925.84 79.8135C928.593 80.1113 932.249 80.5507 934.902 81.0342C939.727 81.9135 944.551 80.7417 943.948 82.793C943.345 84.8446 933.695 84.5518 933.695 84.5518L927.313 85.3272C914.305 87.4988 875.777 85.2194 862.19 84.3174C858.43 84.1274 856.328 84.1703 852.571 84.5791C813.461 89.2944 781.836 90.0364 748.565 85.4766C715.003 80.8769 711.979 92.4882 681.232 88.0381C678.633 87.7514 677.034 87.7974 674.017 88.1289C641.556 92.3563 622.382 91.9263 592.857 86.7647C592.061 86.6256 591.258 86.4829 590.447 86.3369C588.374 86.0198 586.576 85.9009 583.838 85.8369C580.374 85.7682 576.99 85.6554 573.618 85.4766C549.55 84.1999 526.879 91.6035 490.053 85.0791C487 84.6394 484.847 84.6474 482.251 85.0059C481.022 85.2378 479.82 85.4484 478.63 85.6397C470.601 86.9299 463.084 87.3602 450.781 87.8272C450.45 87.8426 450.115 87.8554 449.774 87.8652C437.023 87.7455 416.326 85.0392 397.47 85.4766C382.242 86.6607 375.174 88.8623 356.589 86.7295C353.418 86.3744 351.283 86.3955 348.277 87.0996C347.431 87.3468 346.595 87.5723 345.768 87.7783C325.818 92.7477 311.256 86.1271 305.488 86.6699C302.581 86.9434 292.821 85.0471 280.238 83.544C260.187 86.3324 249.417 86.41 230.94 83.9844C201.529 90.2693 130.888 89.0892 113.563 83.2471C113.023 83.2483 112.482 83.2498 111.943 83.251C79.4379 87.8343 64.2783 86.8804 39.6243 83.4844C37.6346 83.4929 35.6486 83.5 33.6662 83.5088C16.9754 85.7278 11.3121 85.4777 4.92894 83.6514C4.34755 83.6545 3.76643 83.657 3.18578 83.6602C-8.28691 82.1021 13.2433 79.0896 35.6721 82.4102C62.3923 78.4158 77.5027 77.1467 112.109 82.4102C128.631 76.0534 200.364 74.7162 230.073 81.458C248.572 78.8793 259.354 78.9623 279.427 81.9268C292.024 80.3288 301.794 78.3129 304.704 78.6035C310.479 79.1807 325.057 72.1418 345.03 77.4248C345.858 77.6438 346.695 77.8846 347.541 78.1475C350.551 78.896 352.688 78.9175 355.863 78.54C374.468 76.2726 381.544 78.6132 396.789 79.8721C415.666 80.337 436.387 77.4603 449.152 77.333C449.493 77.3434 449.829 77.3567 450.16 77.3731C462.478 77.8695 470.003 78.3275 478.041 79.6992C479.232 79.9025 480.435 80.1265 481.666 80.3731C484.264 80.754 486.42 80.7623 489.476 80.2949C526.343 73.3587 549.039 81.2294 573.135 79.8721C576.51 79.6819 579.898 79.5623 583.366 79.4893C586.108 79.4213 587.907 79.2941 589.982 78.957C590.794 78.8019 591.598 78.6508 592.395 78.5029Z" fill="#3E8BA5"/>
<path d="M1244.39 98.4158C1273.95 89.3776 1293.15 88.6249 1325.65 96.0271C1328.67 96.6077 1330.27 96.6892 1332.87 96.1873C1363.65 88.3948 1366.68 108.726 1400.28 100.672C1433.58 92.6871 1465.25 93.9863 1504.4 102.243C1508.16 102.959 1510.26 103.034 1514.03 102.701C1526.1 101.299 1557.85 97.9949 1573.94 99.9285C1575.37 100.101 1576.68 100.314 1577.84 100.575C1580.59 101.066 1584.25 101.789 1586.9 102.586C1591.73 104.034 1596.55 102.104 1595.95 105.483C1595.34 108.862 1585.69 108.38 1585.69 108.38L1579.32 109.655C1566.32 113.235 1527.78 109.479 1514.19 107.993C1510.43 107.68 1508.33 107.751 1504.57 108.425C1465.46 116.191 1433.84 117.414 1400.56 109.903C1367 102.327 1363.98 121.451 1333.23 114.121C1330.63 113.649 1329.03 113.725 1326.02 114.271C1293.56 121.234 1274.38 120.526 1244.86 112.024C1244.06 111.795 1243.26 111.561 1242.45 111.32C1240.37 110.798 1238.58 110.601 1235.84 110.496C1232.37 110.383 1228.99 110.198 1225.62 109.903C1201.55 107.8 1178.88 119.994 1142.05 109.248C1139 108.524 1136.85 108.537 1134.25 109.128C1133.02 109.51 1131.82 109.856 1130.63 110.171C1122.6 112.296 1115.08 113.005 1102.78 113.774C1102.45 113.8 1102.11 113.821 1101.77 113.837C1089.02 113.639 1068.33 109.183 1049.47 109.903C1034.24 111.854 1027.17 115.479 1008.59 111.967C1005.42 111.382 1003.28 111.415 1000.28 112.575C999.431 112.982 998.595 113.355 997.768 113.694C977.818 121.879 963.256 110.975 957.487 111.869C954.581 112.319 944.821 109.195 932.237 106.72C912.187 111.312 901.418 111.44 882.941 107.445C853.528 117.798 782.88 115.854 765.56 106.23C765.029 106.232 764.498 106.234 763.967 106.236C731.428 113.796 716.268 112.221 691.584 106.619C689.611 106.633 687.641 106.646 685.675 106.66C668.974 110.318 663.312 109.904 656.926 106.894C656.346 106.9 655.765 106.905 655.186 106.91C643.713 104.344 665.243 99.3831 687.672 104.852C714.392 98.2734 729.503 96.183 764.109 104.852C780.631 94.3822 852.364 92.1797 882.073 103.284C900.572 99.0367 911.354 99.1727 931.427 104.055C944.024 101.423 953.794 98.1032 956.704 98.5818C962.479 99.5324 977.057 87.9389 997.029 96.6404C997.857 97.0012 998.695 97.397 999.541 97.8299C1002.55 99.0628 1004.69 99.099 1007.86 98.4773C1026.47 94.7427 1033.54 98.5982 1048.79 100.672C1067.67 101.438 1088.39 96.6988 1101.15 96.4891C1101.49 96.5062 1101.83 96.5285 1102.16 96.5555C1114.48 97.3731 1122 98.1271 1130.04 100.387C1131.23 100.721 1132.44 101.09 1133.67 101.496C1136.26 102.123 1138.42 102.138 1141.48 101.368C1178.34 89.9434 1201.04 102.907 1225.13 100.672C1228.51 100.359 1231.9 100.161 1235.37 100.041C1238.11 99.9288 1239.91 99.72 1241.98 99.1648C1242.79 98.9092 1243.6 98.6594 1244.39 98.4158Z" fill="#3E8BA5"/>
<path d="M532.15 237.238C558.703 232.074 575.947 231.643 605.14 235.873C607.853 236.205 609.29 236.252 611.627 235.965C639.279 231.512 641.998 243.13 672.181 238.527C702.102 233.965 730.543 234.707 765.714 239.425C769.093 239.834 770.983 239.877 774.364 239.686C785.21 238.885 813.726 236.998 828.18 238.103C829.468 238.201 830.644 238.323 831.687 238.472C834.16 238.752 837.443 239.166 839.826 239.621C844.161 240.449 848.496 239.345 847.954 241.276C847.414 243.2 838.811 242.934 838.743 242.932L833.01 243.661C821.325 245.705 786.715 243.56 774.509 242.711C771.131 242.532 769.244 242.572 765.868 242.957C730.736 247.395 702.326 248.093 672.439 243.802C642.29 239.473 639.574 250.4 611.953 246.212C609.618 245.942 608.183 245.986 605.473 246.298C576.313 250.277 559.088 249.872 532.566 245.014C531.851 244.883 531.129 244.749 530.4 244.611C528.539 244.313 526.924 244.201 524.465 244.141C521.353 244.076 518.313 243.97 515.284 243.802C493.663 242.6 473.298 249.568 440.217 243.428C437.475 243.014 435.54 243.021 433.208 243.358C432.104 243.577 431.025 243.775 429.956 243.955C422.744 245.169 415.991 245.574 404.939 246.014C404.641 246.028 404.34 246.041 404.033 246.05C392.579 245.937 373.987 243.39 357.049 243.802C343.37 244.916 337.02 246.989 320.325 244.981C317.476 244.647 315.559 244.666 312.858 245.329C312.099 245.562 311.348 245.775 310.605 245.969C292.683 250.646 279.603 244.414 274.421 244.925C271.81 245.182 263.042 243.398 251.738 241.983C233.727 244.608 224.052 244.68 207.454 242.397C181.035 248.313 117.58 247.202 102.015 241.704C101.53 241.705 101.045 241.706 100.56 241.707C71.358 246.021 57.7401 245.123 35.5909 241.927C33.8054 241.935 32.0232 241.941 30.2442 241.949C15.2485 244.038 10.1615 243.802 4.42683 242.083C3.90484 242.086 3.38273 242.089 2.8614 242.092C-7.44375 240.625 11.8971 237.791 32.045 240.916C56.0479 237.157 69.6212 235.962 100.708 240.916C115.55 234.933 179.989 233.674 206.677 240.019C223.293 237.593 232.978 237.67 251.01 240.46C262.327 238.956 271.104 237.059 273.718 237.333C278.906 237.876 292 231.251 309.941 236.224C310.685 236.43 311.438 236.656 312.198 236.903C314.902 237.608 316.821 237.628 319.673 237.272C336.386 235.138 342.743 237.342 356.438 238.527C373.394 238.965 392.008 236.257 403.475 236.137C403.782 236.146 404.084 236.159 404.381 236.175C415.446 236.642 422.206 237.073 429.427 238.364C430.497 238.556 431.577 238.766 432.683 238.998C435.017 239.357 436.954 239.365 439.699 238.925C472.817 232.397 493.205 239.805 514.85 238.527C517.882 238.348 520.925 238.235 524.041 238.166C526.503 238.102 528.12 237.983 529.983 237.666C530.713 237.52 531.435 237.377 532.15 237.238Z" fill="#4FAECC"/>
<path d="M1407.81 222.237C1423.97 217.073 1434.46 216.642 1452.22 220.872C1453.87 221.204 1454.75 221.251 1456.17 220.964C1472.99 216.511 1474.65 228.129 1493.02 223.526C1511.22 218.964 1528.53 219.706 1549.93 224.424C1551.99 224.833 1553.14 224.877 1555.19 224.686C1561.79 223.885 1579.14 221.997 1587.94 223.102C1588.72 223.2 1589.44 223.322 1590.07 223.471C1591.58 223.751 1593.58 224.165 1595.03 224.62C1597.66 225.448 1600.3 224.345 1599.97 226.275C1599.64 228.2 1594.4 227.933 1594.37 227.931L1590.88 228.66C1583.77 230.705 1562.71 228.559 1555.28 227.71C1553.23 227.531 1552.08 227.572 1550.02 227.957C1528.65 232.395 1511.36 233.093 1493.17 228.802C1474.83 224.473 1473.17 235.4 1456.37 231.212C1454.95 230.942 1454.07 230.986 1452.42 231.298C1434.68 235.276 1424.2 234.872 1408.06 230.014C1407.63 229.883 1407.19 229.749 1406.74 229.611C1405.61 229.313 1404.63 229.201 1403.13 229.141C1401.24 229.076 1399.39 228.97 1397.55 228.802C1384.39 227.6 1372 234.567 1351.87 228.427C1350.2 228.013 1349.02 228.021 1347.6 228.358C1346.93 228.577 1346.27 228.774 1345.62 228.954C1341.24 230.168 1337.13 230.574 1330.4 231.014C1330.22 231.028 1330.04 231.041 1329.85 231.05C1322.88 230.937 1311.57 228.39 1301.26 228.802C1292.94 229.916 1289.07 231.988 1278.92 229.98C1277.18 229.646 1276.01 229.665 1274.37 230.328C1273.91 230.561 1273.45 230.774 1273 230.968C1262.1 235.645 1254.14 229.414 1250.98 229.925C1249.39 230.182 1244.06 228.397 1237.18 226.982C1226.22 229.607 1220.33 229.68 1210.23 227.397C1194.16 233.312 1155.56 232.2 1146.08 226.703C1145.78 226.704 1145.49 226.706 1145.19 226.707C1127.42 231.022 1119.13 230.123 1105.65 226.926C1104.57 226.934 1103.49 226.941 1102.4 226.949C1093.28 229.038 1090.18 228.802 1086.7 227.083C1086.38 227.086 1086.06 227.089 1085.74 227.092C1079.47 225.625 1091.24 222.79 1103.5 225.915C1118.1 222.156 1126.36 220.961 1145.28 225.915C1154.31 219.932 1193.52 218.674 1209.76 225.019C1219.87 222.593 1225.77 222.67 1236.74 225.46C1243.62 223.956 1248.96 222.058 1250.55 222.332C1253.71 222.875 1261.68 216.251 1272.6 221.224C1273.05 221.43 1273.51 221.655 1273.97 221.902C1275.62 222.607 1276.78 222.628 1278.52 222.272C1288.69 220.139 1292.56 222.341 1300.89 223.526C1311.21 223.964 1322.53 221.257 1329.51 221.137C1329.7 221.146 1329.88 221.159 1330.06 221.175C1336.8 221.642 1340.91 222.072 1345.3 223.363C1345.95 223.555 1346.61 223.765 1347.28 223.997C1348.7 224.356 1349.88 224.364 1351.55 223.924C1371.7 217.396 1384.11 224.804 1397.28 223.526C1399.13 223.347 1400.98 223.235 1402.87 223.166C1404.37 223.102 1405.36 222.982 1406.49 222.665C1406.93 222.519 1407.37 222.376 1407.81 222.237Z" fill="#479FBB"/>
<path d="M370.809 123.238C386.965 118.073 397.459 117.643 415.222 121.873C416.873 122.204 417.747 122.251 419.169 121.964C435.995 117.511 437.65 129.129 456.016 124.527C474.222 119.964 491.529 120.706 512.93 125.424C514.986 125.833 516.136 125.877 518.194 125.687C524.793 124.886 542.144 122.997 550.94 124.102C551.723 124.2 552.439 124.322 553.073 124.471C554.578 124.751 556.576 125.165 558.027 125.621C560.664 126.448 563.301 125.345 562.972 127.276C562.643 129.2 557.402 128.933 557.367 128.931L553.879 129.661C546.77 131.705 525.709 129.559 518.281 128.71C516.226 128.532 515.078 128.573 513.024 128.957C491.646 133.395 474.359 134.093 456.173 129.801C437.828 125.472 436.175 136.401 419.368 132.212C417.948 131.943 417.073 131.986 415.424 132.298C397.681 136.277 387.2 135.872 371.062 131.014C370.627 130.883 370.188 130.749 369.744 130.612C368.611 130.313 367.629 130.201 366.132 130.141C364.238 130.076 362.388 129.97 360.545 129.801C347.389 128.6 334.997 135.568 314.868 129.427C313.2 129.013 312.022 129.022 310.604 129.359C309.931 129.577 309.275 129.775 308.624 129.955C304.236 131.169 300.127 131.575 293.402 132.014C293.221 132.029 293.037 132.04 292.851 132.049C285.881 131.937 274.568 129.39 264.261 129.801C255.937 130.916 252.074 132.988 241.915 130.981C240.182 130.647 239.015 130.666 237.371 131.329C236.909 131.561 236.452 131.774 236 131.968C225.095 136.645 217.136 130.414 213.983 130.925C212.394 131.183 207.059 129.398 200.181 127.983C189.221 130.607 183.334 130.68 173.235 128.397C157.161 134.311 118.557 133.2 109.08 127.704C108.784 127.705 108.487 127.706 108.191 127.707C90.4196 132.022 82.134 131.124 68.6544 127.926C67.5688 127.934 66.4851 127.941 65.4035 127.95C56.2779 130.039 53.1833 129.802 49.6935 128.082C49.376 128.085 49.0585 128.088 48.7414 128.091C42.4707 126.625 54.2394 123.79 66.4992 126.915C81.1047 123.156 89.3644 121.962 108.28 126.915C117.312 120.933 156.522 119.675 172.761 126.02C182.872 123.593 188.765 123.67 199.737 126.46C206.624 124.956 211.964 123.059 213.555 123.332C216.712 123.875 224.68 117.251 235.597 122.223C236.049 122.429 236.507 122.655 236.97 122.903C238.615 123.607 239.783 123.628 241.519 123.273C251.688 121.139 255.556 123.342 263.889 124.527C274.207 124.964 285.533 122.257 292.511 122.137C292.698 122.147 292.882 122.16 293.063 122.175C299.795 122.642 303.909 123.073 308.302 124.364C308.953 124.555 309.61 124.765 310.283 124.998C311.704 125.356 312.882 125.364 314.553 124.924C334.705 118.396 347.111 125.804 360.281 124.527C362.126 124.348 363.978 124.235 365.874 124.166C367.373 124.102 368.356 123.983 369.49 123.665C369.934 123.519 370.373 123.377 370.809 123.238Z" fill="#479FBB"/>
<path d="M1004.06 33.2373C1054.16 28.0726 1086.69 27.6422 1141.77 31.872C1146.89 32.2037 1149.6 32.2506 1154.01 31.9638C1206.19 27.5111 1211.32 39.1286 1268.27 34.5263C1324.72 29.9638 1378.38 30.7057 1444.74 35.4238C1451.12 35.8328 1454.69 35.8766 1461.07 35.6865C1481.53 34.8854 1535.33 32.9966 1562.6 34.1015C1565.03 34.2 1567.25 34.3228 1569.22 34.4716C1573.89 34.752 1580.08 35.165 1584.58 35.6201C1592.76 36.4476 1600.94 35.3447 1599.91 37.2754C1598.89 39.2049 1582.56 38.931 1582.53 38.9306L1571.73 39.6591C1549.7 41.7058 1484.37 39.56 1461.34 38.7109C1454.97 38.5321 1451.4 38.5722 1445.03 38.957C1378.75 43.3949 1325.15 44.0933 1268.75 39.8017C1211.87 35.4726 1206.74 46.4004 1154.63 42.2119C1150.22 41.9421 1147.51 41.9858 1142.4 42.2978C1087.38 46.2765 1054.88 45.8717 1004.84 41.0136C1003.49 40.8827 1002.13 40.7487 1000.76 40.6113C997.244 40.3129 994.198 40.2008 989.557 40.1406C983.685 40.0759 977.949 39.97 972.235 39.8017C931.44 38.6001 893.015 45.5683 830.599 39.4277C825.425 39.0139 821.774 39.021 817.375 39.3584C815.291 39.5766 813.255 39.7751 811.238 39.955C797.63 41.1695 784.89 41.5742 764.036 42.0136C763.476 42.0281 762.907 42.0405 762.328 42.0498C740.717 41.937 705.637 39.3901 673.678 39.8017C647.868 40.9162 635.888 42.9888 604.388 40.9814C599.013 40.6472 595.396 40.6664 590.3 41.3291C588.867 41.5617 587.449 41.7738 586.047 41.9677C552.234 46.6447 527.554 40.414 517.777 40.9248C512.85 41.1822 496.308 39.3971 474.98 37.9824C440.995 40.6068 422.742 40.6803 391.425 38.3974C341.578 44.3125 221.85 43.2022 192.482 37.7041C191.566 37.7052 190.651 37.7059 189.736 37.707C134.638 42.0212 108.942 41.1227 67.1496 37.9257C63.7828 37.9337 60.422 37.9409 57.0675 37.9492C28.7732 40.0381 19.1737 39.8021 8.35367 38.083C7.36869 38.086 6.38426 38.0887 5.40055 38.0918C-14.0449 36.6254 22.4477 33.7896 60.463 36.915C105.751 33.1556 131.362 31.9611 190.016 36.915C218.02 30.9321 339.602 29.6742 389.956 36.0195C421.309 33.5925 439.582 33.6699 473.605 36.4599C494.957 34.9559 511.518 33.0583 516.449 33.332C526.238 33.8752 550.945 27.2514 584.796 32.2236C586.2 32.4298 587.619 32.6559 589.054 32.9033C594.156 33.6078 597.777 33.6277 603.158 33.2724C634.693 31.1384 646.687 33.3415 672.526 34.5263C704.52 34.9639 739.639 32.2565 761.275 32.1367C761.854 32.1465 762.423 32.1593 762.985 32.1748C783.862 32.642 796.616 33.0732 810.239 34.3642C812.258 34.5556 814.297 34.765 816.383 34.997C820.787 35.3557 824.441 35.3637 829.621 34.9238C892.108 28.3956 930.576 35.8038 971.416 34.5263C977.137 34.3474 982.879 34.2347 988.758 34.166C993.404 34.102 996.454 33.9823 999.97 33.665C1001.35 33.519 1002.71 33.3764 1004.06 33.2373Z" fill="#3E8BA4"/>
<path d="M891.809 255.238C907.965 250.073 918.458 249.643 936.222 253.873C937.872 254.204 938.747 254.251 940.169 253.964C956.995 249.511 958.65 261.129 977.016 256.527C995.222 251.964 1012.53 252.706 1033.93 257.424C1035.99 257.833 1037.14 257.877 1039.19 257.687C1045.79 256.886 1063.14 254.997 1071.94 256.102C1072.72 256.2 1073.44 256.322 1074.07 256.471C1075.58 256.751 1077.58 257.165 1079.03 257.621C1081.66 258.448 1084.3 257.345 1083.97 259.276C1083.64 261.2 1078.4 260.933 1078.37 260.931L1074.88 261.661C1067.77 263.705 1046.71 261.559 1039.28 260.71C1037.23 260.532 1036.08 260.573 1034.02 260.957C1012.65 265.395 995.359 266.093 977.173 261.801C958.828 257.472 957.174 268.401 940.367 264.212C938.947 263.943 938.073 263.986 936.424 264.298C918.681 268.277 908.2 267.872 892.062 263.014C891.627 262.883 891.187 262.749 890.744 262.612C889.611 262.313 888.629 262.201 887.132 262.141C885.238 262.076 883.388 261.97 881.545 261.801C868.389 260.6 855.997 267.568 835.868 261.427C834.2 261.013 833.022 261.022 831.604 261.359C830.931 261.577 830.275 261.775 829.624 261.955C825.235 263.169 821.127 263.575 814.401 264.014C814.221 264.029 814.037 264.04 813.851 264.049C806.881 263.937 795.567 261.39 785.261 261.801C776.937 262.916 773.074 264.988 762.915 262.981C761.182 262.647 760.015 262.666 758.371 263.329C757.909 263.561 757.452 263.774 757 263.968C746.095 268.645 738.136 262.414 734.982 262.925C733.394 263.183 728.059 261.398 721.181 259.983C710.221 262.607 704.334 262.68 694.234 260.397C678.161 266.311 639.557 265.2 630.08 259.704C629.783 259.705 629.487 259.706 629.19 259.707C611.42 264.022 603.134 263.124 589.654 259.926C588.568 259.934 587.484 259.941 586.401 259.95C577.277 262.038 574.183 261.802 570.693 260.082C570.376 260.085 570.058 260.088 569.741 260.091C563.471 258.625 575.239 255.79 587.499 258.915C602.105 255.156 610.364 253.962 629.28 258.915C638.312 252.933 677.522 251.675 693.761 258.02C703.872 255.593 709.765 255.67 720.737 258.46C727.623 256.956 732.964 255.059 734.555 255.332C737.712 255.875 745.68 249.251 756.597 254.223C757.049 254.429 757.507 254.655 757.97 254.903C759.615 255.607 760.783 255.628 762.519 255.273C772.688 253.139 776.556 255.342 784.889 256.527C795.207 256.964 806.533 254.257 813.511 254.137C813.698 254.147 813.882 254.16 814.063 254.175C820.795 254.642 824.908 255.073 829.302 256.364C829.953 256.555 830.61 256.765 831.283 256.998C832.703 257.356 833.882 257.364 835.553 256.924C855.704 250.396 868.111 257.804 881.281 256.527C883.126 256.348 884.978 256.235 886.874 256.166C888.372 256.102 889.356 255.983 890.49 255.665C890.934 255.519 891.373 255.377 891.809 255.238Z" fill="#479FBB"/>
<path d="M323.809 94.2378C339.965 89.0731 350.458 88.6427 368.222 92.8725C369.872 93.2042 370.747 93.251 372.169 92.9643C388.995 88.5114 390.65 100.129 409.016 95.5268C427.222 90.9643 444.528 91.7062 465.93 96.4243C467.986 96.8333 469.136 96.8771 471.193 96.687C477.793 95.8859 495.144 93.9971 503.939 95.102C504.723 95.2005 505.439 95.3223 506.073 95.4712C507.578 95.7515 509.576 96.1655 511.026 96.6206C513.664 97.4482 516.301 96.3451 515.972 98.2758C515.643 100.2 510.403 99.9329 510.367 99.9311L506.879 100.661C499.77 102.705 478.709 100.559 471.281 99.7104C469.226 99.5316 468.077 99.5727 466.023 99.9575C444.646 104.395 427.359 105.093 409.173 100.801C390.828 96.4721 389.175 107.4 372.368 103.211C370.947 102.942 370.073 102.986 368.424 103.298C350.681 107.277 340.2 106.872 324.062 102.014C323.627 101.883 323.187 101.749 322.744 101.612C321.611 101.313 320.629 101.201 319.132 101.141C317.238 101.076 315.388 100.97 313.545 100.801C300.389 99.5998 287.997 106.568 267.868 100.427C266.2 100.013 265.022 100.022 263.603 100.359C262.931 100.577 262.274 100.775 261.624 100.955C257.235 102.169 253.127 102.575 246.401 103.014C246.221 103.029 246.037 103.04 245.851 103.049C238.881 102.937 227.567 100.39 217.261 100.801C208.937 101.916 205.074 103.988 194.915 101.981C193.181 101.647 192.015 101.666 190.371 102.329C189.909 102.561 189.452 102.774 189 102.968C178.095 107.645 170.136 101.414 166.982 101.925C165.394 102.183 160.059 100.398 153.181 98.9829C142.221 101.607 136.334 101.68 126.234 99.3969C110.161 105.311 71.5594 104.2 62.081 98.7036C61.7831 98.7047 61.4852 98.7063 61.1875 98.7075C43.4193 103.021 35.134 102.123 21.6562 98.9262C20.5693 98.9342 19.4843 98.9414 18.4014 98.9497C9.27734 101.038 6.1829 100.802 2.69334 99.0825C2.3758 99.0855 2.05833 99.0883 1.74119 99.0913C-4.52954 97.6249 7.23919 94.7902 19.499 97.9155C34.1045 94.1561 42.3642 92.9616 61.2803 97.9155C70.312 91.9327 109.522 90.6747 125.761 97.02C135.872 94.593 141.765 94.6703 152.737 97.4604C159.623 95.9563 164.964 94.0588 166.555 94.3325C169.712 94.8755 177.68 88.2509 188.597 93.2231C189.049 93.4293 189.507 93.6554 189.97 93.9028C191.615 94.6073 192.783 94.6282 194.519 94.2729C204.688 92.139 208.556 94.342 216.889 95.5268C227.207 95.9644 238.533 93.257 245.511 93.1372C245.697 93.147 245.882 93.1589 246.062 93.1743C252.795 93.6415 256.908 94.0727 261.302 95.3637C261.953 95.5551 262.61 95.7655 263.283 95.9975C264.703 96.3562 265.882 96.3642 267.553 95.9243C287.704 89.3962 300.11 96.8043 313.281 95.5268C315.126 95.3479 316.978 95.2352 318.874 95.1665C320.372 95.1025 321.356 94.9828 322.49 94.6655C322.934 94.5195 323.373 94.3769 323.809 94.2378Z" fill="#479FBB"/>
<path d="M607.809 49.2378C623.965 44.0731 634.458 43.6427 652.222 47.8725C653.872 48.2042 654.747 48.251 656.169 47.9643C672.995 43.5114 674.65 55.1292 693.016 50.5268C711.222 45.9643 728.528 46.7062 749.93 51.4243C751.986 51.8333 753.136 51.8771 755.193 51.687C761.793 50.8859 779.144 48.9971 787.939 50.102C788.723 50.2005 789.439 50.3223 790.073 50.4712C791.578 50.7515 793.576 51.1655 795.026 51.6206C797.664 52.4482 800.301 51.3452 799.972 53.2758C799.643 55.2 794.404 54.933 794.367 54.9311L790.879 55.6606C783.77 57.705 762.709 55.5594 755.281 54.7104C753.226 54.5316 752.077 54.5727 750.023 54.9575C728.646 59.3954 711.359 60.0929 693.173 55.8012C674.828 51.4721 673.174 62.4009 656.367 58.2124C654.947 57.9427 654.073 57.9863 652.424 58.2983C634.681 62.2769 624.2 61.872 608.062 57.0141C607.627 56.8832 607.187 56.7491 606.744 56.6118C605.611 56.3133 604.629 56.2013 603.132 56.1411C601.238 56.0764 599.388 55.9696 597.545 55.8012C584.389 54.5998 571.997 61.5676 551.868 55.4272C550.2 55.0134 549.022 55.0216 547.604 55.3589C546.931 55.5771 546.275 55.7746 545.624 55.9546C541.235 57.169 537.127 57.5747 530.401 58.0141C530.221 58.0286 530.037 58.04 529.851 58.0493C522.881 57.9366 511.567 55.3896 501.261 55.8012C492.937 56.9157 489.074 58.9882 478.915 56.9809C477.182 56.6467 476.015 56.6659 474.371 57.3286C473.909 57.5612 473.452 57.7743 473 57.9682C462.095 62.6453 454.136 56.4143 450.982 56.9253C449.394 57.1826 444.059 55.3976 437.181 53.9829C426.221 56.6073 420.334 56.6798 410.234 54.3969C394.161 60.3114 355.557 59.2001 346.08 53.7036C345.783 53.7047 345.487 53.7063 345.19 53.7075C327.42 58.0222 319.134 57.1236 305.654 53.9262C304.568 53.9342 303.484 53.9414 302.401 53.9497C293.277 56.0382 290.183 55.8019 286.693 54.0825C286.376 54.0855 286.058 54.0883 285.741 54.0913C279.471 52.6249 291.239 49.7902 303.499 52.9155C318.105 49.1561 326.364 47.9616 345.28 52.9155C354.312 46.9328 393.522 45.6747 409.761 52.02C419.872 49.593 425.765 49.6703 436.737 52.4604C443.623 50.9563 448.964 49.0588 450.555 49.3325C453.712 49.8755 461.68 43.2509 472.597 48.2231C473.049 48.4293 473.507 48.6554 473.97 48.9028C475.615 49.6073 476.783 49.6282 478.519 49.2729C488.688 47.139 492.556 49.342 500.889 50.5268C511.207 50.9644 522.533 48.257 529.511 48.1372C529.698 48.147 529.882 48.1598 530.063 48.1753C536.795 48.6425 540.908 49.0727 545.302 50.3637C545.953 50.5551 546.61 50.7655 547.283 50.9975C548.703 51.3562 549.882 51.3642 551.553 50.9243C571.704 44.3962 584.111 51.8043 597.281 50.5268C599.126 50.3479 600.978 50.2352 602.874 50.1665C604.372 50.1025 605.356 49.9828 606.49 49.6655C606.934 49.5195 607.373 49.3769 607.809 49.2378Z" fill="#479FBB"/>
<path d="M1133.81 49.2378C1149.97 44.0731 1160.46 43.6427 1178.22 47.8725C1179.87 48.2042 1180.75 48.251 1182.17 47.9643C1198.99 43.5114 1200.65 55.1292 1219.02 50.5268C1237.22 45.9643 1254.53 46.7062 1275.93 51.4243C1277.99 51.8333 1279.14 51.8771 1281.19 51.687C1287.79 50.8859 1305.14 48.9971 1313.94 50.102C1314.72 50.2005 1315.44 50.3223 1316.07 50.4712C1317.58 50.7515 1319.58 51.1655 1321.03 51.6206C1323.66 52.4482 1326.3 51.3452 1325.97 53.2758C1325.64 55.2 1320.4 54.933 1320.37 54.9311L1316.88 55.6606C1309.77 57.705 1288.71 55.5594 1281.28 54.7104C1279.23 54.5316 1278.08 54.5727 1276.02 54.9575C1254.65 59.3954 1237.36 60.0929 1219.17 55.8012C1200.83 51.4721 1199.17 62.4009 1182.37 58.2124C1180.95 57.9427 1180.07 57.9863 1178.42 58.2983C1160.68 62.2769 1150.2 61.872 1134.06 57.0141C1133.63 56.8832 1133.19 56.7491 1132.74 56.6118C1131.61 56.3133 1130.63 56.2013 1129.13 56.1411C1127.24 56.0764 1125.39 55.9696 1123.54 55.8012C1110.39 54.5998 1098 61.5676 1077.87 55.4272C1076.2 55.0134 1075.02 55.0216 1073.6 55.3589C1072.93 55.5771 1072.27 55.7746 1071.62 55.9546C1067.24 57.169 1063.13 57.5747 1056.4 58.0141C1056.22 58.0286 1056.04 58.04 1055.85 58.0493C1048.88 57.9366 1037.57 55.3896 1027.26 55.8012C1018.94 56.9157 1015.07 58.9882 1004.92 56.9809C1003.18 56.6467 1002.01 56.6659 1000.37 57.3286C999.909 57.5612 999.452 57.7743 999 57.9682C988.095 62.6453 980.136 56.4143 976.982 56.9253C975.394 57.1826 970.059 55.3976 963.181 53.9829C952.221 56.6073 946.334 56.6798 936.234 54.3969C920.161 60.3114 881.557 59.2001 872.08 53.7036C871.783 53.7047 871.487 53.7063 871.19 53.7075C853.42 58.0222 845.134 57.1236 831.654 53.9262C830.568 53.9342 829.484 53.9414 828.401 53.9497C819.277 56.0382 816.183 55.8019 812.693 54.0825C812.376 54.0855 812.058 54.0883 811.741 54.0913C805.471 52.6249 817.239 49.7902 829.499 52.9155C844.105 49.1561 852.364 47.9616 871.28 52.9155C880.312 46.9328 919.522 45.6747 935.761 52.02C945.872 49.593 951.765 49.6703 962.737 52.4604C969.623 50.9563 974.964 49.0588 976.555 49.3325C979.712 49.8755 987.68 43.2509 998.597 48.2231C999.049 48.4293 999.507 48.6554 999.97 48.9028C1001.62 49.6073 1002.78 49.6282 1004.52 49.2729C1014.69 47.139 1018.56 49.342 1026.89 50.5268C1037.21 50.9644 1048.53 48.257 1055.51 48.1372C1055.7 48.147 1055.88 48.1598 1056.06 48.1753C1062.8 48.6425 1066.91 49.0727 1071.3 50.3637C1071.95 50.5551 1072.61 50.7655 1073.28 50.9975C1074.7 51.3562 1075.88 51.3642 1077.55 50.9243C1097.7 44.3962 1110.11 51.8043 1123.28 50.5268C1125.13 50.3479 1126.98 50.2352 1128.87 50.1665C1130.37 50.1025 1131.36 49.9828 1132.49 49.6655C1132.93 49.5195 1133.37 49.3769 1133.81 49.2378Z" fill="#479FBB"/>
<path d="M491.074 300.681C515.577 291.32 531.49 290.54 558.429 298.206C560.932 298.807 562.258 298.892 564.415 298.372C589.933 290.301 592.443 311.358 620.295 303.017C647.906 294.747 674.152 296.092 706.609 304.644C709.727 305.385 711.471 305.464 714.591 305.119C724.599 303.667 750.915 300.244 764.253 302.247C765.441 302.426 766.527 302.647 767.488 302.917C769.771 303.425 772.801 304.175 775 305C779 306.5 783 304.5 782.5 308C782.001 311.494 774.027 311.002 774 311L768.712 312.321C757.933 316.028 725.99 312.139 714.725 310.601C711.608 310.276 709.865 310.349 706.75 311.047C674.33 319.091 648.114 320.356 620.533 312.577C592.712 304.731 590.205 324.538 564.717 316.946C562.562 316.457 561.237 316.537 558.736 317.103C531.828 324.314 515.932 323.58 491.457 314.775C490.798 314.538 490.131 314.295 489.459 314.046C487.741 313.505 486.251 313.301 483.982 313.192C481.11 313.075 478.304 312.883 475.509 312.578C455.557 310.4 436.764 323.029 406.236 311.899C403.706 311.149 401.92 311.163 399.769 311.774C398.75 312.17 397.754 312.528 396.768 312.855C390.112 315.056 383.881 315.791 373.682 316.588C373.408 316.614 373.129 316.636 372.846 316.652C362.276 316.448 345.119 311.832 329.488 312.578C316.865 314.598 311.006 318.354 295.6 314.716C292.971 314.11 291.202 314.145 288.709 315.346C288.008 315.767 287.315 316.153 286.629 316.505C270.091 324.982 258.02 313.688 253.238 314.614C250.829 315.081 242.738 311.846 232.307 309.281C215.686 314.038 206.758 314.17 191.442 310.032C167.06 320.754 108.495 318.742 94.1368 308.774C93.6966 308.776 93.2565 308.778 92.8165 308.78C65.8424 316.61 53.2752 314.978 32.8126 309.176C31.1765 309.19 29.5434 309.205 27.9132 309.22C14.0711 313.007 9.37804 312.579 4.08508 309.462C3.60341 309.467 3.12181 309.473 2.64075 309.479C-6.86956 306.821 10.9786 301.682 29.5714 307.347C51.7216 300.533 64.2474 298.368 92.9347 307.347C106.631 296.503 166.095 294.222 190.723 305.723C206.057 301.324 214.995 301.464 231.635 306.522C242.077 303.796 250.176 300.356 252.589 300.852C257.376 301.836 269.461 289.83 286.017 298.842C286.703 299.215 287.398 299.626 288.1 300.074C290.595 301.351 292.366 301.388 294.998 300.744C310.421 296.876 316.287 300.869 328.925 303.017C344.573 303.81 361.749 298.903 372.33 298.686C372.613 298.703 372.893 298.726 373.167 298.754C383.378 299.601 389.616 300.382 396.278 302.722C397.266 303.069 398.264 303.45 399.284 303.87C401.438 304.52 403.225 304.535 405.758 303.738C436.319 291.906 455.134 305.332 475.109 303.017C477.906 302.692 480.715 302.488 483.59 302.363C485.862 302.247 487.354 302.031 489.074 301.456C489.747 301.191 490.414 300.933 491.074 300.681Z" fill="#4FB8D9"/>
<path d="M1291.23 301.682C1317.18 292.321 1334.04 291.54 1362.58 299.207C1365.23 299.808 1366.64 299.893 1368.92 299.373C1395.96 291.302 1398.61 312.359 1428.12 304.017C1457.37 295.748 1485.17 297.093 1519.56 305.644C1522.86 306.386 1524.71 306.464 1528.01 306.119C1538.62 304.667 1566.49 301.244 1580.62 303.247C1581.88 303.425 1583.03 303.647 1584.05 303.917C1586.47 304.425 1589.68 305.175 1592.01 306C1596.25 307.5 1600.48 305.501 1599.96 309C1599.43 312.488 1591.01 312.003 1590.95 312L1585.35 313.321C1573.93 317.028 1540.09 313.139 1528.16 311.6C1524.85 311.276 1523.01 311.35 1519.71 312.048C1485.36 320.091 1457.59 321.357 1428.37 313.578C1398.9 305.732 1396.24 325.538 1369.24 317.946C1366.96 317.457 1365.56 317.537 1362.91 318.102C1334.4 325.314 1317.56 324.58 1291.63 315.775C1290.93 315.538 1290.23 315.295 1289.52 315.046C1287.7 314.505 1286.12 314.301 1283.71 314.192C1280.67 314.075 1277.7 313.883 1274.74 313.578C1253.6 311.4 1233.69 324.029 1201.35 312.899C1198.67 312.149 1196.78 312.164 1194.5 312.775C1193.42 313.171 1192.37 313.529 1191.32 313.855C1184.27 316.056 1177.67 316.791 1166.87 317.588C1166.57 317.614 1166.28 317.635 1165.98 317.652C1154.78 317.448 1136.61 312.832 1120.05 313.578C1106.68 315.598 1100.47 319.354 1084.15 315.716C1081.36 315.11 1079.49 315.146 1076.85 316.347C1076.11 316.768 1075.37 317.153 1074.64 317.505C1057.13 325.981 1044.34 314.689 1039.27 315.614C1036.72 316.081 1028.15 312.845 1017.1 310.281C999.49 315.038 990.032 315.171 973.806 311.033C947.976 321.755 885.934 319.742 870.725 309.774C870.259 309.776 869.793 309.778 869.327 309.78C840.751 317.61 827.438 315.979 805.76 310.177C804.027 310.191 802.298 310.205 800.571 310.22C785.906 314.007 780.934 313.58 775.326 310.463C774.816 310.468 774.306 310.473 773.797 310.478C763.723 307.821 782.63 302.682 802.326 308.347C825.791 301.533 839.061 299.368 869.451 308.347C883.961 297.503 946.955 295.223 973.045 306.724C989.29 302.325 998.758 302.464 1016.39 307.521C1027.45 304.795 1036.03 301.356 1038.59 301.852C1043.66 302.836 1056.46 290.831 1074 299.843C1074.72 300.216 1075.46 300.626 1076.2 301.074C1078.85 302.351 1080.72 302.388 1083.51 301.744C1099.85 297.876 1106.06 301.87 1119.45 304.017C1136.03 304.811 1154.22 299.903 1165.43 299.685C1165.73 299.703 1166.03 299.726 1166.32 299.754C1177.14 300.601 1183.75 301.382 1190.8 303.723C1191.85 304.069 1192.91 304.45 1193.99 304.871C1196.27 305.521 1198.16 305.535 1200.85 304.738C1233.22 292.906 1253.15 306.333 1274.31 304.017C1277.28 303.693 1280.25 303.489 1283.3 303.364C1285.71 303.248 1287.29 303.032 1289.11 302.457C1289.82 302.192 1290.53 301.934 1291.23 301.682Z" fill="#4FB8D9"/>
<path d="M1293.84 183.681C1319.57 174.32 1336.29 173.54 1364.59 181.206C1367.22 181.807 1368.61 181.893 1370.88 181.373C1397.68 173.303 1400.31 194.358 1429.57 186.017C1458.58 177.747 1486.14 179.092 1520.24 187.644C1523.51 188.385 1525.34 188.464 1528.62 188.119C1539.14 186.667 1566.78 183.244 1580.79 185.247C1582.04 185.426 1583.18 185.647 1584.19 185.917C1586.58 186.425 1589.77 187.175 1592.08 188C1596.28 189.5 1600.48 187.501 1599.96 191C1599.43 194.5 1591.03 194 1591.03 194L1585.47 195.321C1574.15 199.027 1540.59 195.139 1528.76 193.601C1525.49 193.277 1523.66 193.351 1520.39 194.048C1486.33 202.092 1458.79 203.357 1429.82 195.578C1400.6 187.732 1397.96 207.538 1371.19 199.946C1368.93 199.457 1367.54 199.537 1364.91 200.103C1336.64 207.314 1319.95 206.58 1294.24 197.775C1293.54 197.538 1292.85 197.295 1292.14 197.046C1290.33 196.505 1288.77 196.302 1286.38 196.192C1283.37 196.075 1280.42 195.883 1277.49 195.578C1256.53 193.4 1236.79 206.029 1204.72 194.899C1202.06 194.149 1200.19 194.164 1197.93 194.775C1196.86 195.171 1195.81 195.529 1194.77 195.856C1187.78 198.057 1181.24 198.791 1170.52 199.588C1170.24 199.614 1169.94 199.636 1169.65 199.652C1158.54 199.448 1140.52 194.832 1124.1 195.578C1110.84 197.598 1104.69 201.354 1088.5 197.716C1085.74 197.11 1083.88 197.145 1081.27 198.346C1080.53 198.767 1079.8 199.153 1079.08 199.505C1061.71 207.982 1049.03 196.688 1044.01 197.614C1041.48 198.081 1032.98 194.845 1022.02 192.281C1004.56 197.038 995.183 197.17 979.094 193.032C953.482 203.754 891.964 201.742 876.883 191.774C876.421 191.776 875.958 191.778 875.496 191.78C847.163 199.609 833.962 197.979 812.47 192.177C810.751 192.191 809.035 192.205 807.322 192.22C792.78 196.008 787.85 195.579 782.29 192.462C781.785 192.467 781.279 192.473 780.775 192.479C770.784 189.821 789.532 184.682 809.063 190.347C832.33 183.533 845.487 181.368 875.62 190.347C890.007 179.503 952.471 177.222 978.34 188.723C994.447 184.324 1003.84 184.465 1021.31 189.522C1032.28 186.796 1040.79 183.357 1043.33 183.853C1048.35 184.837 1061.05 172.831 1078.44 181.843C1079.16 182.216 1079.89 182.626 1080.63 183.074C1083.25 184.351 1085.11 184.388 1087.87 183.744C1104.07 179.876 1110.24 183.869 1123.51 186.017C1139.95 186.81 1157.99 181.903 1169.1 181.686C1169.4 181.703 1169.69 181.726 1169.98 181.754C1180.71 182.601 1187.26 183.383 1194.26 185.723C1195.3 186.07 1196.35 186.451 1197.42 186.871C1199.68 187.521 1201.56 187.536 1204.22 186.738C1236.32 174.906 1256.08 188.332 1277.06 186.017C1280 185.692 1282.95 185.488 1285.97 185.363C1288.36 185.247 1289.93 185.031 1291.73 184.456C1292.44 184.191 1293.14 183.933 1293.84 183.681Z" fill="#56B8D7"/>
<path d="M692 4.55713C692.215 4.55737 714.5 6.99949 721 8.99949C727.5 10.9995 752.408 9.57343 758.5 8.99949L775 7.99949V16.4995H0.00012207V9.99949C4.71758 11.0999 6.72441 10.1749 10.5001 8.99949C17.2995 7.34003 21.1344 6.92512 28.0001 6.99949C37.3222 7.10151 46.6161 7.24592 57.5001 9.99949C67.1954 11.184 72.603 12.3421 82.5001 9.99949C84.2058 9.4172 85.7436 8.92033 87.1864 8.49981C107.463 1.91006 119.936 0.440578 137.071 4.70775C139.311 5.0403 141.3 5.52162 142.549 6.21613C143.875 6.61326 145.233 7.04107 146.626 7.49981C153.383 9.21814 157.687 9.33309 164 7.99949C173.568 6.8989 178.932 6.43355 188.5 7.99949C194.413 10.0963 199.106 10.4264 207.5 10.9995C223.949 10.3033 226.558 9.97277 237 7.99949C248.786 7.07392 255.399 6.48356 267 7.99949C279.926 8.20723 286.723 8.83703 298 10.9995C312.41 11.9584 320.588 11.934 335.5 9.99949C347.221 8.42036 358.5 9.49949 363 10.9995C367.5 12.4995 382 10.9995 382 10.9995C390.007 9.86223 394.771 9.75587 399.291 10.5C400.618 10.7184 401.924 11.0101 403.284 11.3706C405.296 11.6353 407.084 11.5175 409.508 10.9995C415.626 9.68886 419.889 9.92293 426.5 10.9995L448 9.49949C466.71 8.25364 478.054 9.10161 498.5 10.9995C513.531 10.9047 521.961 10.1458 537 7.99949C558.32 6.44069 570.017 6.95728 590.5 9.99949C605.27 10.9283 613.381 10.5378 627.5 7.99949C637.182 6.17764 642.309 6.12903 651 7.49949C658.223 8.26075 672.028 7.363 672.5 6.05713C672.636 5.681 680.333 3.89046 692 4.55713Z" fill="#3F8DA6" fill-opacity="0.5"/>
<path d="M1511.65 2.38929C1511.87 2.38954 1535.6 4.96833 1542.52 7.08026C1549.44 9.19219 1575.95 7.68632 1582.44 7.08026L1600 6.0243V15H775V8.13623C780.022 9.29826 782.158 8.32147 786.178 7.08026C793.416 5.32793 797.498 4.8898 804.807 4.96834C814.73 5.07607 824.624 5.22855 836.21 8.13623C846.531 9.38708 852.287 10.61 862.823 8.13623C864.638 7.52135 866.275 6.99668 867.811 6.55262C889.396 -0.40593 902.674 -1.95765 920.914 2.54834C923.299 2.8995 925.416 3.40776 926.746 4.14113C928.157 4.56049 929.603 5.01224 931.086 5.49665C938.278 7.31115 942.86 7.43253 949.581 6.0243C959.766 4.86211 965.476 4.37072 975.661 6.0243C981.955 8.23849 986.951 8.58699 995.887 9.19219C1013.4 8.457 1016.17 8.10801 1027.29 6.0243C1039.84 5.04693 1046.88 4.42353 1059.23 6.0243C1072.99 6.24367 1080.22 6.90871 1092.23 9.19219C1107.57 10.2048 1116.27 10.179 1132.15 8.13623C1144.62 6.46872 1156.63 7.60825 1161.42 9.19219C1166.21 10.7761 1181.65 9.19219 1181.65 9.19219C1190.17 7.99128 1195.24 7.87898 1200.05 8.66475C1201.46 8.8954 1202.85 9.20344 1204.3 9.58405C1206.44 9.86354 1208.35 9.73916 1210.93 9.19219C1217.44 7.80822 1221.98 8.05538 1229.02 9.19219L1251.9 7.60825C1271.82 6.29267 1283.9 7.1881 1305.66 9.19219C1321.66 9.09214 1330.64 8.29071 1346.65 6.0243C1369.34 4.37826 1381.79 4.92376 1403.6 8.13623C1419.32 9.11702 1427.95 8.70465 1442.98 6.0243C1453.29 4.10049 1458.75 4.04916 1468 5.49632C1475.69 6.30018 1490.38 5.35219 1490.89 3.97324C1491.03 3.57605 1499.23 1.68531 1511.65 2.38929Z" fill="#3F8DA6" fill-opacity="0.5"/>
</svg>
